<svg width="14" height="15" viewBox="0 0 14 15" fill="none" xmlns="http://www.w3.org/2000/svg">
<path fill-rule="evenodd" clip-rule="evenodd" d="M0.529663 3.37655C0.529663 2.65579 0.815982 1.96456 1.32563 1.45491C1.83529 0.945255 2.52652 0.658936 3.24728 0.658936H12.306C12.4742 0.658936 12.6391 0.705782 12.7822 0.794227C12.9253 0.882671 13.041 1.00922 13.1162 1.15969C13.1915 1.31016 13.2233 1.47861 13.2082 1.64616C13.1931 1.81371 13.1316 1.97374 13.0307 2.10833L10.7207 5.18829L13.0307 8.26826C13.1316 8.40284 13.1931 8.56288 13.2082 8.73043C13.2233 8.89798 13.1915 9.06643 13.1162 9.2169C13.041 9.36737 12.9253 9.49392 12.7822 9.58236C12.6391 9.6708 12.4742 9.71765 12.306 9.71765H3.24728C3.00703 9.71765 2.77661 9.81309 2.60673 9.98297C2.43685 10.1529 2.34141 10.3833 2.34141 10.6235L2.34141 13.3411C2.34141 13.5814 2.24597 13.8118 2.07608 13.9817C1.9062 14.1516 1.67579 14.247 1.43553 14.247C1.19528 14.247 0.964871 14.1516 0.794987 13.9817C0.625103 13.8118 0.529663 13.5814 0.529663 13.3411L0.529663 3.37655Z" fill="#F76659"/>
</svg>
