<svg width="221" height="140" viewBox="0 0 221 140" fill="none" xmlns="http://www.w3.org/2000/svg">
<path d="M98.3903 3.54492H6.12776C4.78793 3.54492 3.70178 4.62615 3.70178 5.95992V48.0599C3.70178 49.3937 4.78793 50.4749 6.12776 50.4749H98.3903C99.7301 50.4749 100.816 49.3937 100.816 48.0599V5.95992C100.816 4.62615 99.7301 3.54492 98.3903 3.54492Z" fill="white"/>
<path d="M48.9515 8.32007H36.3696C35.1823 8.32007 34.2198 9.27818 34.2198 10.4601C34.2198 11.642 35.1823 12.6001 36.3696 12.6001H48.9515C50.1388 12.6001 51.1012 11.642 51.1012 10.4601C51.1012 9.27818 50.1388 8.32007 48.9515 8.32007Z" fill="#FFE9CC"/>
<path d="M35.1389 42.115H10.4121C9.22479 42.115 8.26233 43.0731 8.26233 44.255C8.26233 45.4369 9.22479 46.395 10.4121 46.395H35.1389C36.3262 46.395 37.2887 45.4369 37.2887 44.255C37.2887 43.0731 36.3262 42.115 35.1389 42.115Z" fill="#FFF0F0"/>
<path d="M68.9771 44.2525C68.9771 43.141 68.072 42.24 66.9555 42.24C65.839 42.24 64.9338 43.141 64.9338 44.2525C64.9338 45.364 65.839 46.265 66.9555 46.265C68.072 46.265 68.9771 45.364 68.9771 44.2525Z" fill="#CCE3FF"/>
<path d="M78.2491 44.2525C78.2491 43.141 77.344 42.24 76.2275 42.24C75.1109 42.24 74.2058 43.141 74.2058 44.2525C74.2058 45.364 75.1109 46.265 76.2275 46.265C77.344 46.265 78.2491 45.364 78.2491 44.2525Z" fill="#CCF1D5"/>
<path d="M87.5211 44.2525C87.5211 43.141 86.616 42.24 85.4994 42.24C84.3829 42.24 83.4778 43.141 83.4778 44.2525C83.4778 45.364 84.3829 46.265 85.4994 46.265C86.616 46.265 87.5211 45.364 87.5211 44.2525Z" fill="#CCEDFF"/>
<path d="M96.7929 44.2525C96.7929 43.141 95.8878 42.24 94.7713 42.24C93.6548 42.24 92.7496 43.141 92.7496 44.2525C92.7496 45.364 93.6548 46.265 94.7713 46.265C95.8878 46.265 96.7929 45.364 96.7929 44.2525Z" fill="#FFE9CC"/>
<path d="M30.0359 8.92993H8.21216V12.1099H30.0359V8.92993Z" fill="#F1F1F1"/>
<path d="M88.7315 19.1299H8.21216V22.3099H88.7315V19.1299Z" fill="#F1F1F1"/>
<path d="M59.0221 28H8.21216V31.18H59.0221V28Z" fill="#F1F1F1"/>
<path d="M93.2922 14.215C95.2589 14.215 96.8533 12.6189 96.8533 10.65C96.8533 8.68107 95.2589 7.08496 93.2922 7.08496C91.3254 7.08496 89.7311 8.68107 89.7311 10.65C89.7311 12.6189 91.3254 14.215 93.2922 14.215Z" fill="#CCF1D5"/>
<path d="M96.3409 37.855H8.32764V38.005H96.3409V37.855Z" fill="#F0F0F0"/>
<path d="M8.32764 37.9299H72.2469" stroke="#F0F0F0" stroke-width="0.3" stroke-miterlimit="10"/>
<path d="M98.3903 66.0049H6.12776C4.78793 66.0049 3.70178 67.0861 3.70178 68.4199V110.52C3.70178 111.854 4.78793 112.935 6.12776 112.935H98.3903C99.7301 112.935 100.816 111.854 100.816 110.52V68.4199C100.816 67.0861 99.7301 66.0049 98.3903 66.0049Z" fill="#E9EDF2"/>
<path d="M98.3902 113.14H96.7728C96.7434 113.145 96.7134 113.143 96.6848 113.135C96.6561 113.127 96.6296 113.113 96.607 113.093C96.5844 113.074 96.5662 113.05 96.5537 113.023C96.5413 112.996 96.5348 112.967 96.5348 112.937C96.5348 112.908 96.5413 112.879 96.5537 112.852C96.5662 112.825 96.5844 112.801 96.607 112.782C96.6296 112.762 96.6561 112.748 96.6848 112.74C96.7134 112.732 96.7434 112.73 96.7728 112.735H98.3902C98.766 112.735 99.1358 112.641 99.465 112.46C99.488 112.447 99.5133 112.439 99.5396 112.436C99.5658 112.433 99.5924 112.435 99.6178 112.442C99.6431 112.45 99.6667 112.462 99.687 112.479C99.7074 112.496 99.7241 112.517 99.7363 112.54C99.762 112.587 99.7685 112.641 99.7544 112.693C99.7404 112.744 99.7068 112.788 99.6609 112.815C99.271 113.027 98.8343 113.138 98.3902 113.14ZM94.3418 113.14H92.7245C92.6761 113.132 92.6319 113.108 92.6 113.071C92.5682 113.034 92.5507 112.986 92.5507 112.937C92.5507 112.889 92.5682 112.841 92.6 112.804C92.6319 112.767 92.6761 112.743 92.7245 112.735H94.3418C94.3712 112.73 94.4013 112.732 94.4299 112.74C94.4585 112.748 94.4851 112.762 94.5077 112.782C94.5303 112.801 94.5485 112.825 94.5609 112.852C94.5734 112.879 94.5798 112.908 94.5798 112.937C94.5798 112.967 94.5734 112.996 94.5609 113.023C94.5485 113.05 94.5303 113.074 94.5077 113.093C94.4851 113.113 94.4585 113.127 94.4299 113.135C94.4013 113.143 94.3712 113.145 94.3418 113.14ZM90.2985 113.14H88.6812C88.6328 113.132 88.5886 113.108 88.5567 113.071C88.5249 113.034 88.5074 112.986 88.5074 112.937C88.5074 112.889 88.5249 112.841 88.5567 112.804C88.5886 112.767 88.6328 112.743 88.6812 112.735H90.2985C90.347 112.743 90.3911 112.767 90.423 112.804C90.4549 112.841 90.4724 112.889 90.4724 112.937C90.4724 112.986 90.4549 113.034 90.423 113.071C90.3911 113.108 90.347 113.132 90.2985 113.14ZM86.2552 113.14H84.6379C84.6085 113.145 84.5785 113.143 84.5499 113.135C84.5212 113.127 84.4947 113.113 84.4721 113.093C84.4494 113.074 84.4313 113.05 84.4188 113.023C84.4064 112.996 84.3999 112.967 84.3999 112.937C84.3999 112.908 84.4064 112.879 84.4188 112.852C84.4313 112.825 84.4494 112.801 84.4721 112.782C84.4947 112.762 84.5212 112.748 84.5499 112.74C84.5785 112.732 84.6085 112.73 84.6379 112.735H86.2552C86.3037 112.743 86.3478 112.767 86.3797 112.804C86.4116 112.841 86.4291 112.889 86.4291 112.937C86.4291 112.986 86.4116 113.034 86.3797 113.071C86.3478 113.108 86.3037 113.132 86.2552 113.14ZM82.2371 113.14H80.6147C80.5663 113.132 80.5221 113.108 80.4902 113.071C80.4584 113.034 80.4409 112.986 80.4409 112.937C80.4409 112.889 80.4584 112.841 80.4902 112.804C80.5221 112.767 80.5663 112.743 80.6147 112.735H82.2371C82.2855 112.743 82.3297 112.767 82.3615 112.804C82.3934 112.841 82.4109 112.889 82.4109 112.937C82.4109 112.986 82.3934 113.034 82.3615 113.071C82.3297 113.108 82.2855 113.132 82.2371 113.14ZM78.1887 113.14H76.5463C76.4978 113.132 76.4537 113.108 76.4218 113.071C76.39 113.034 76.3724 112.986 76.3724 112.937C76.3724 112.889 76.39 112.841 76.4218 112.804C76.4537 112.767 76.4978 112.743 76.5463 112.735H78.1636C78.193 112.73 78.2231 112.732 78.2517 112.74C78.2803 112.748 78.3069 112.762 78.3295 112.782C78.3521 112.801 78.3703 112.825 78.3827 112.852C78.3952 112.879 78.4016 112.908 78.4016 112.937C78.4016 112.967 78.3952 112.996 78.3827 113.023C78.3703 113.05 78.3521 113.074 78.3295 113.093C78.3069 113.113 78.2803 113.127 78.2517 113.135C78.2231 113.143 78.193 113.145 78.1636 113.14H78.1887ZM74.1454 113.14H72.5281C72.4797 113.132 72.4355 113.108 72.4037 113.071C72.3718 113.034 72.3543 112.986 72.3543 112.937C72.3543 112.889 72.3718 112.841 72.4037 112.804C72.4355 112.767 72.4797 112.743 72.5281 112.735H74.1454C74.1939 112.743 74.2381 112.767 74.2699 112.804C74.3018 112.841 74.3193 112.889 74.3193 112.937C74.3193 112.986 74.3018 113.034 74.2699 113.071C74.2381 113.108 74.1939 113.132 74.1454 113.14ZM70.1273 113.14H68.4597C68.4303 113.145 68.4003 113.143 68.3717 113.135C68.343 113.127 68.3165 113.113 68.2939 113.093C68.2712 113.074 68.2531 113.05 68.2406 113.023C68.2282 112.996 68.2217 112.967 68.2217 112.937C68.2217 112.908 68.2282 112.879 68.2406 112.852C68.2531 112.825 68.2712 112.801 68.2939 112.782C68.3165 112.762 68.343 112.748 68.3717 112.74C68.4003 112.732 68.4303 112.73 68.4597 112.735H70.077C70.1255 112.743 70.1696 112.767 70.2015 112.804C70.2334 112.841 70.2509 112.889 70.2509 112.937C70.2509 112.986 70.2334 113.034 70.2015 113.071C70.1696 113.108 70.1255 113.132 70.077 113.14H70.1273ZM66.079 113.14H64.4616C64.4132 113.132 64.369 113.108 64.3372 113.071C64.3053 113.034 64.2878 112.986 64.2878 112.937C64.2878 112.889 64.3053 112.841 64.3372 112.804C64.369 112.767 64.4132 112.743 64.4616 112.735H66.079C66.1083 112.73 66.1384 112.732 66.167 112.74C66.1957 112.748 66.2222 112.762 66.2448 112.782C66.2674 112.801 66.2856 112.825 66.298 112.852C66.3105 112.879 66.3169 112.908 66.3169 112.937C66.3169 112.967 66.3105 112.996 66.298 113.023C66.2856 113.05 66.2674 113.074 66.2448 113.093C66.2222 113.113 66.1957 113.127 66.167 113.135C66.1384 113.143 66.1083 113.145 66.079 113.14ZM62.0357 113.14H60.4183C60.3699 113.132 60.3257 113.108 60.2939 113.071C60.262 113.034 60.2445 112.986 60.2445 112.937C60.2445 112.889 60.262 112.841 60.2939 112.804C60.3257 112.767 60.3699 112.743 60.4183 112.735H62.0357C62.0841 112.743 62.1283 112.767 62.1601 112.804C62.192 112.841 62.2095 112.889 62.2095 112.937C62.2095 112.986 62.192 113.034 62.1601 113.071C62.1283 113.108 62.0841 113.132 62.0357 113.14ZM58.0175 113.14H56.4002C56.3708 113.145 56.3407 113.143 56.3121 113.135C56.2835 113.127 56.2569 113.113 56.2343 113.093C56.2117 113.074 56.1935 113.05 56.1811 113.023C56.1686 112.996 56.1622 112.967 56.1622 112.937C56.1622 112.908 56.1686 112.879 56.1811 112.852C56.1935 112.825 56.2117 112.801 56.2343 112.782C56.2569 112.762 56.2835 112.748 56.3121 112.74C56.3407 112.732 56.3708 112.73 56.4002 112.735H58.0175C58.0659 112.743 58.1101 112.767 58.142 112.804C58.1738 112.841 58.1913 112.889 58.1913 112.937C58.1913 112.986 58.1738 113.034 58.142 113.071C58.1101 113.108 58.0659 113.132 58.0175 113.14ZM53.9692 113.14H52.3518C52.3034 113.132 52.2592 113.108 52.2274 113.071C52.1955 113.034 52.178 112.986 52.178 112.937C52.178 112.889 52.1955 112.841 52.2274 112.804C52.2592 112.767 52.3034 112.743 52.3518 112.735H53.9692C53.9986 112.73 54.0286 112.732 54.0572 112.74C54.0859 112.748 54.1124 112.762 54.135 112.782C54.1576 112.801 54.1758 112.825 54.1883 112.852C54.2007 112.879 54.2072 112.908 54.2072 112.937C54.2072 112.967 54.2007 112.996 54.1883 113.023C54.1758 113.05 54.1576 113.074 54.135 113.093C54.1124 113.113 54.0859 113.127 54.0572 113.135C54.0286 113.143 53.9986 113.145 53.9692 113.14ZM49.951 113.14H48.2181C48.1697 113.132 48.1255 113.108 48.0937 113.071C48.0618 113.034 48.0443 112.986 48.0443 112.937C48.0443 112.889 48.0618 112.841 48.0937 112.804C48.1255 112.767 48.1697 112.743 48.2181 112.735H49.8355C49.8839 112.743 49.9281 112.767 49.9599 112.804C49.9918 112.841 50.0093 112.889 50.0093 112.937C50.0093 112.986 49.9918 113.034 49.9599 113.071C49.9281 113.108 49.8839 113.132 49.8355 113.14H49.951ZM45.9328 113.14H44.2C44.1515 113.132 44.1074 113.108 44.0755 113.071C44.0436 113.034 44.0261 112.986 44.0261 112.937C44.0261 112.889 44.0436 112.841 44.0755 112.804C44.1074 112.767 44.1515 112.743 44.2 112.735H45.8072C45.8557 112.743 45.8998 112.767 45.9317 112.804C45.9636 112.841 45.9811 112.889 45.9811 112.937C45.9811 112.986 45.9636 113.034 45.9317 113.071C45.8998 113.108 45.8557 113.132 45.8072 113.14H45.9328ZM41.9146 113.14H40.1416C40.0931 113.132 40.049 113.108 40.0171 113.071C39.9852 113.034 39.9677 112.986 39.9677 112.937C39.9677 112.889 39.9852 112.841 40.0171 112.804C40.049 112.767 40.0931 112.743 40.1416 112.735H41.7639C41.8124 112.743 41.8565 112.767 41.8884 112.804C41.9203 112.841 41.9378 112.889 41.9378 112.937C41.9378 112.986 41.9203 113.034 41.8884 113.071C41.8565 113.108 41.8124 113.132 41.7639 113.14H41.9146ZM37.8663 113.14H36.0983C36.0498 113.132 36.0057 113.108 35.9738 113.071C35.9419 113.034 35.9244 112.986 35.9244 112.937C35.9244 112.889 35.9419 112.841 35.9738 112.804C36.0057 112.767 36.0498 112.743 36.0983 112.735H37.7156C37.745 112.73 37.7751 112.732 37.8037 112.74C37.8323 112.748 37.8589 112.762 37.8815 112.782C37.9041 112.801 37.9223 112.825 37.9347 112.852C37.9472 112.879 37.9536 112.908 37.9536 112.937C37.9536 112.967 37.9472 112.996 37.9347 113.023C37.9223 113.05 37.9041 113.074 37.8815 113.093C37.8589 113.113 37.8323 113.127 37.8037 113.135C37.7751 113.143 37.745 113.145 37.7156 113.14H37.8663ZM33.8481 113.14H32.055C32.0065 113.132 31.9624 113.108 31.9305 113.071C31.8986 113.034 31.8811 112.986 31.8811 112.937C31.8811 112.889 31.8986 112.841 31.9305 112.804C31.9624 112.767 32.0065 112.743 32.055 112.735H33.6522C33.7007 112.743 33.7448 112.767 33.7767 112.804C33.8086 112.841 33.8261 112.889 33.8261 112.937C33.8261 112.986 33.8086 113.034 33.7767 113.071C33.7448 113.108 33.7007 113.132 33.6522 113.14H33.8481ZM29.8048 113.14H28.0117C27.9823 113.145 27.9523 113.143 27.9236 113.135C27.895 113.127 27.8685 113.113 27.8458 113.093C27.8232 113.074 27.8051 113.05 27.7926 113.023C27.7802 112.996 27.7737 112.967 27.7737 112.937C27.7737 112.908 27.7802 112.879 27.7926 112.852C27.8051 112.825 27.8232 112.801 27.8458 112.782C27.8685 112.762 27.895 112.748 27.9236 112.74C27.9523 112.732 27.9823 112.73 28.0117 112.735H29.634C29.6825 112.743 29.7266 112.767 29.7585 112.804C29.7904 112.841 29.8079 112.889 29.8079 112.937C29.8079 112.986 29.7904 113.034 29.7585 113.071C29.7266 113.108 29.6825 113.132 29.634 113.14H29.8048ZM25.7565 113.14H23.9634C23.9149 113.132 23.8708 113.108 23.8389 113.071C23.807 113.034 23.7895 112.986 23.7895 112.937C23.7895 112.889 23.807 112.841 23.8389 112.804C23.8708 112.767 23.9149 112.743 23.9634 112.735H25.5807C25.6101 112.73 25.6401 112.732 25.6688 112.74C25.6974 112.748 25.7239 112.762 25.7466 112.782C25.7692 112.801 25.7873 112.825 25.7998 112.852C25.8123 112.879 25.8187 112.908 25.8187 112.937C25.8187 112.967 25.8123 112.996 25.7998 113.023C25.7873 113.05 25.7692 113.074 25.7466 113.093C25.7239 113.113 25.6974 113.127 25.6688 113.135C25.6401 113.143 25.6101 113.145 25.5807 113.14H25.7565ZM21.7383 113.14H19.9201C19.8716 113.132 19.8275 113.108 19.7956 113.071C19.7637 113.034 19.7462 112.986 19.7462 112.937C19.7462 112.889 19.7637 112.841 19.7956 112.804C19.8275 112.767 19.8716 112.743 19.9201 112.735H21.5374C21.5859 112.743 21.63 112.767 21.6619 112.804C21.6938 112.841 21.7113 112.889 21.7113 112.937C21.7113 112.986 21.6938 113.034 21.6619 113.071C21.63 113.108 21.5859 113.132 21.5374 113.14H21.7383ZM17.695 113.14H15.8768C15.8474 113.145 15.8174 113.143 15.7887 113.135C15.7601 113.127 15.7336 113.113 15.7109 113.093C15.6883 113.074 15.6702 113.05 15.6577 113.023C15.6452 112.996 15.6388 112.967 15.6388 112.937C15.6388 112.908 15.6452 112.879 15.6577 112.852C15.6702 112.825 15.6883 112.801 15.7109 112.782C15.7336 112.762 15.7601 112.748 15.7887 112.74C15.8174 112.732 15.8474 112.73 15.8768 112.735H17.4941C17.5426 112.743 17.5867 112.767 17.6186 112.804C17.6505 112.841 17.668 112.889 17.668 112.937C17.668 112.986 17.6505 113.034 17.6186 113.071C17.5867 113.108 17.5426 113.132 17.4941 113.14H17.695ZM13.6768 113.14H11.8285C11.78 113.132 11.7359 113.108 11.704 113.071C11.6721 113.034 11.6546 112.986 11.6546 112.937C11.6546 112.889 11.6721 112.841 11.704 112.804C11.7359 112.767 11.78 112.743 11.8285 112.735H13.4508C13.4993 112.743 13.5434 112.767 13.5753 112.804C13.6072 112.841 13.6247 112.889 13.6247 112.937C13.6247 112.986 13.6072 113.034 13.5753 113.071C13.5434 113.108 13.4993 113.132 13.4508 113.14H13.6768ZM9.62852 113.14H7.78518C7.73672 113.132 7.69258 113.108 7.6607 113.071C7.62883 113.034 7.61131 112.986 7.61131 112.937C7.61131 112.889 7.62883 112.841 7.6607 112.804C7.69258 112.767 7.73672 112.743 7.78518 112.735H9.4025C9.43189 112.73 9.46194 112.732 9.49057 112.74C9.51921 112.748 9.54574 112.762 9.56836 112.782C9.59098 112.801 9.60914 112.825 9.62159 112.852C9.63405 112.879 9.64049 112.908 9.64049 112.937C9.64049 112.967 9.63405 112.996 9.62159 113.023C9.60914 113.05 9.59098 113.074 9.56836 113.093C9.54574 113.113 9.51921 113.127 9.49057 113.135C9.46194 113.143 9.43189 113.145 9.4025 113.14H9.62852ZM5.61034 113.02H5.54505C4.98439 112.835 4.50182 112.469 4.17384 111.98C4.15911 111.958 4.14897 111.934 4.14403 111.908C4.13908 111.882 4.13944 111.855 4.14507 111.83C4.1507 111.804 4.16149 111.78 4.17679 111.758C4.19209 111.737 4.21159 111.719 4.23411 111.705C4.25549 111.689 4.27989 111.678 4.30576 111.673C4.33164 111.667 4.35842 111.667 4.38441 111.672C4.4104 111.677 4.43502 111.688 4.4567 111.703C4.47839 111.718 4.49666 111.737 4.51036 111.76C4.78905 112.172 5.19716 112.479 5.67061 112.635C5.72149 112.652 5.76362 112.688 5.78802 112.736C5.81241 112.784 5.81714 112.839 5.8012 112.89C5.81586 112.946 5.80742 113.006 5.77775 113.056C5.74808 113.106 5.6996 113.143 5.64299 113.157C5.58637 113.172 5.52626 113.164 5.47586 113.134C5.42547 113.105 5.38893 113.056 5.37427 113L5.61034 113.02ZM101.042 110.885C101.016 110.883 100.99 110.876 100.966 110.864C100.943 110.852 100.922 110.836 100.904 110.816C100.887 110.796 100.874 110.773 100.866 110.748C100.857 110.723 100.854 110.696 100.856 110.67C100.856 110.62 100.856 110.57 100.856 110.52V109.07C100.856 109.017 100.877 108.966 100.915 108.929C100.953 108.891 101.004 108.87 101.057 108.87C101.111 108.87 101.162 108.891 101.199 108.929C101.237 108.966 101.258 109.017 101.258 109.07V110.5C101.258 110.56 101.258 110.62 101.258 110.675C101.286 110.734 101.289 110.802 101.267 110.863C101.245 110.924 101.199 110.975 101.14 111.002C101.081 111.03 101.013 111.034 100.951 111.012C100.889 110.99 100.839 110.944 100.811 110.885H101.042ZM3.7017 109.725C3.64842 109.725 3.59732 109.704 3.55964 109.666C3.52196 109.629 3.5008 109.578 3.5008 109.525V107.915C3.5008 107.862 3.52196 107.811 3.55964 107.774C3.59732 107.736 3.64842 107.715 3.7017 107.715C3.75499 107.715 3.80609 107.736 3.84377 107.774C3.88145 107.811 3.90261 107.862 3.90261 107.915V109.525C3.90261 109.578 3.88145 109.629 3.84377 109.666C3.80609 109.704 3.75499 109.725 3.7017 109.725ZM100.816 106.855C100.79 106.855 100.764 106.85 100.739 106.84C100.715 106.83 100.693 106.815 100.674 106.796C100.655 106.778 100.641 106.756 100.631 106.732C100.62 106.707 100.615 106.681 100.615 106.655V105.045C100.615 104.992 100.636 104.941 100.674 104.904C100.712 104.866 100.763 104.845 100.816 104.845C100.869 104.845 100.921 104.866 100.958 104.904C100.996 104.941 101.017 104.992 101.017 105.045V106.655C101.017 106.708 100.996 106.759 100.958 106.796C100.921 106.834 100.869 106.855 100.816 106.855ZM3.7017 105.7C3.65107 105.696 3.60376 105.673 3.56928 105.636C3.53481 105.599 3.51572 105.551 3.51586 105.5V103.89C3.51586 103.837 3.53703 103.786 3.57471 103.749C3.61239 103.711 3.66349 103.69 3.71677 103.69C3.77006 103.69 3.82116 103.711 3.85884 103.749C3.89651 103.786 3.91768 103.837 3.91768 103.89V105.5C3.91776 105.528 3.91211 105.555 3.90108 105.58C3.89006 105.605 3.8739 105.628 3.85361 105.647C3.83333 105.666 3.80937 105.68 3.78322 105.689C3.75708 105.698 3.72933 105.702 3.7017 105.7ZM100.816 102.83C100.79 102.83 100.764 102.825 100.739 102.815C100.715 102.805 100.693 102.79 100.674 102.771C100.655 102.753 100.641 102.731 100.631 102.707C100.62 102.682 100.615 102.656 100.615 102.63V101C100.615 100.947 100.636 100.896 100.674 100.859C100.712 100.821 100.763 100.8 100.816 100.8C100.869 100.8 100.921 100.821 100.958 100.859C100.996 100.896 101.017 100.947 101.017 101V102.61C101.02 102.638 101.017 102.666 101.008 102.693C100.999 102.719 100.985 102.744 100.966 102.764C100.947 102.785 100.924 102.802 100.898 102.813C100.872 102.824 100.844 102.83 100.816 102.83ZM3.7017 101.675C3.67489 101.675 3.64835 101.67 3.62364 101.659C3.59893 101.649 3.57656 101.634 3.55783 101.615C3.53911 101.596 3.52442 101.573 3.51462 101.548C3.50483 101.523 3.50012 101.497 3.5008 101.47V99.86C3.5008 99.8069 3.52196 99.7561 3.55964 99.7185C3.59732 99.681 3.64842 99.66 3.7017 99.66C3.75499 99.66 3.80609 99.681 3.84377 99.7185C3.88145 99.7561 3.90261 99.8069 3.90261 99.86V101.47C3.90328 101.497 3.89858 101.523 3.88879 101.548C3.87899 101.573 3.8643 101.596 3.84557 101.615C3.82685 101.634 3.80448 101.649 3.77977 101.659C3.75506 101.67 3.72852 101.675 3.7017 101.675ZM100.816 98.805C100.79 98.805 100.764 98.7998 100.739 98.7897C100.715 98.7797 100.693 98.765 100.674 98.7464C100.655 98.7278 100.641 98.7058 100.631 98.6815C100.62 98.6572 100.615 98.6312 100.615 98.605V97C100.615 96.9469 100.636 96.8961 100.674 96.8585C100.712 96.821 100.763 96.8 100.816 96.8C100.869 96.8 100.921 96.821 100.958 96.8585C100.996 96.8961 101.017 96.9469 101.017 97V98.61C101.016 98.6621 100.994 98.7117 100.956 98.7482C100.919 98.7846 100.869 98.805 100.816 98.805ZM3.7017 97.645C3.64842 97.645 3.59732 97.6239 3.55964 97.5864C3.52196 97.5489 3.5008 97.498 3.5008 97.445V95.835C3.5008 95.7819 3.52196 95.7311 3.55964 95.6935C3.59732 95.656 3.64842 95.635 3.7017 95.635C3.75499 95.635 3.80609 95.656 3.84377 95.6935C3.88145 95.7311 3.90261 95.7819 3.90261 95.835V97.445C3.90261 97.498 3.88145 97.5489 3.84377 97.5864C3.80609 97.6239 3.75499 97.645 3.7017 97.645ZM100.816 94.78C100.789 94.78 100.763 94.7746 100.738 94.7643C100.713 94.7539 100.691 94.7387 100.672 94.7196C100.654 94.7005 100.639 94.6779 100.629 94.653C100.619 94.6282 100.615 94.6016 100.615 94.575V92.965C100.615 92.9119 100.636 92.8611 100.674 92.8235C100.712 92.786 100.763 92.765 100.816 92.765C100.869 92.765 100.921 92.786 100.958 92.8235C100.996 92.8611 101.017 92.9119 101.017 92.965V94.575C101.018 94.6016 101.013 94.6282 101.003 94.653C100.993 94.6779 100.979 94.7005 100.96 94.7196C100.941 94.7387 100.919 94.7539 100.894 94.7643C100.869 94.7746 100.843 94.78 100.816 94.78ZM3.7017 93.62C3.64842 93.62 3.59732 93.5989 3.55964 93.5614C3.52196 93.5239 3.5008 93.473 3.5008 93.42V91.81C3.5008 91.7837 3.50599 91.7577 3.51609 91.7334C3.52619 91.7092 3.54098 91.6871 3.55964 91.6685C3.5783 91.65 3.60044 91.6352 3.62482 91.6252C3.6492 91.6151 3.67532 91.61 3.7017 91.61C3.72809 91.61 3.75421 91.6151 3.77859 91.6252C3.80296 91.6352 3.82511 91.65 3.84377 91.6685C3.86242 91.6871 3.87722 91.7092 3.88732 91.7334C3.89742 91.7577 3.90261 91.7837 3.90261 91.81V93.42C3.90261 93.473 3.88145 93.5239 3.84377 93.5614C3.80609 93.5989 3.75499 93.62 3.7017 93.62ZM100.816 90.75C100.79 90.75 100.764 90.7448 100.739 90.7347C100.715 90.7247 100.693 90.71 100.674 90.6914C100.655 90.6728 100.641 90.6508 100.631 90.6265C100.62 90.6022 100.615 90.5762 100.615 90.55V88.94C100.615 88.8869 100.636 88.8361 100.674 88.7985C100.712 88.761 100.763 88.74 100.816 88.74C100.869 88.74 100.921 88.761 100.958 88.7985C100.996 88.8361 101.017 88.8869 101.017 88.94V90.55C101.017 90.603 100.996 90.6539 100.958 90.6914C100.921 90.7289 100.869 90.75 100.816 90.75ZM3.7017 89.595C3.67489 89.595 3.64835 89.5896 3.62364 89.5793C3.59893 89.5689 3.57656 89.5537 3.55783 89.5346C3.53911 89.5155 3.52442 89.4929 3.51462 89.468C3.50483 89.4432 3.50012 89.4166 3.5008 89.39V87.78C3.5008 87.7269 3.52196 87.6761 3.55964 87.6385C3.59732 87.601 3.64842 87.58 3.7017 87.58C3.75499 87.58 3.80609 87.601 3.84377 87.6385C3.88145 87.6761 3.90261 87.7269 3.90261 87.78V89.39C3.90328 89.4166 3.89858 89.4432 3.88879 89.468C3.87899 89.4929 3.8643 89.5155 3.84557 89.5346C3.82685 89.5537 3.80448 89.5689 3.77977 89.5793C3.75506 89.5896 3.72852 89.595 3.7017 89.595ZM100.816 86.725C100.79 86.725 100.764 86.7198 100.739 86.7097C100.715 86.6997 100.693 86.685 100.674 86.6664C100.655 86.6478 100.641 86.6258 100.631 86.6015C100.62 86.5772 100.615 86.5512 100.615 86.525V84.915C100.615 84.8619 100.636 84.8111 100.674 84.7735C100.712 84.736 100.763 84.715 100.816 84.715C100.869 84.715 100.921 84.736 100.958 84.7735C100.996 84.8111 101.017 84.8619 101.017 84.915V86.525C101.017 86.5512 101.012 86.5772 101.002 86.6015C100.992 86.6258 100.977 86.6478 100.958 86.6664C100.94 86.685 100.917 86.6997 100.893 86.7097C100.869 86.7198 100.843 86.725 100.816 86.725ZM3.7017 85.565C3.64842 85.565 3.59732 85.5439 3.55964 85.5064C3.52196 85.4689 3.5008 85.418 3.5008 85.365V83.755C3.5008 83.7019 3.52196 83.6511 3.55964 83.6135C3.59732 83.576 3.64842 83.555 3.7017 83.555C3.75499 83.555 3.80609 83.576 3.84377 83.6135C3.88145 83.6511 3.90261 83.7019 3.90261 83.755V85.365C3.90261 85.418 3.88145 85.4689 3.84377 85.5064C3.80609 85.5439 3.75499 85.565 3.7017 85.565ZM100.816 82.7C100.789 82.7 100.763 82.6946 100.738 82.6843C100.713 82.6739 100.691 82.6587 100.672 82.6396C100.654 82.6205 100.639 82.5979 100.629 82.573C100.619 82.5482 100.615 82.5217 100.615 82.495V80.885C100.615 80.8319 100.636 80.7811 100.674 80.7435C100.712 80.706 100.763 80.685 100.816 80.685C100.869 80.685 100.921 80.706 100.958 80.7435C100.996 80.7811 101.017 80.8319 101.017 80.885V82.5C101.017 82.553 100.996 82.6039 100.958 82.6414C100.921 82.6789 100.869 82.7 100.816 82.7ZM3.7017 81.54C3.64842 81.54 3.59732 81.5189 3.55964 81.4814C3.52196 81.4439 3.5008 81.393 3.5008 81.34V79.73C3.5008 79.6769 3.52196 79.6261 3.55964 79.5885C3.59732 79.551 3.64842 79.53 3.7017 79.53C3.75499 79.53 3.80609 79.551 3.84377 79.5885C3.88145 79.6261 3.90261 79.6769 3.90261 79.73V81.34C3.90261 81.393 3.88145 81.4439 3.84377 81.4814C3.80609 81.5189 3.75499 81.54 3.7017 81.54ZM100.816 78.67C100.79 78.67 100.764 78.6648 100.739 78.6547C100.715 78.6447 100.693 78.63 100.674 78.6114C100.655 78.5928 100.641 78.5708 100.631 78.5465C100.62 78.5222 100.615 78.4962 100.615 78.47V76.86C100.615 76.8069 100.636 76.7561 100.674 76.7185C100.712 76.681 100.763 76.66 100.816 76.66C100.869 76.66 100.921 76.681 100.958 76.7185C100.996 76.7561 101.017 76.8069 101.017 76.86V78.47C101.017 78.523 100.996 78.5739 100.958 78.6114C100.921 78.6489 100.869 78.67 100.816 78.67ZM3.7017 77.5C3.64842 77.5 3.59732 77.4789 3.55964 77.4414C3.52196 77.4039 3.5008 77.353 3.5008 77.3V75.7C3.5008 75.6469 3.52196 75.5961 3.55964 75.5585C3.59732 75.521 3.64842 75.5 3.7017 75.5C3.75499 75.5 3.80609 75.521 3.84377 75.5585C3.88145 75.5961 3.90261 75.6469 3.90261 75.7V77.315C3.89881 77.3654 3.87597 77.4125 3.8387 77.4468C3.80142 77.4811 3.75248 77.5001 3.7017 77.5ZM100.816 74.63C100.79 74.63 100.764 74.6248 100.739 74.6147C100.715 74.6047 100.693 74.59 100.674 74.5714C100.655 74.5528 100.641 74.5308 100.631 74.5065C100.62 74.4822 100.615 74.4562 100.615 74.43V72.82C100.615 72.7669 100.636 72.7161 100.674 72.6785C100.712 72.641 100.763 72.62 100.816 72.62C100.869 72.62 100.921 72.641 100.958 72.6785C100.996 72.7161 101.017 72.7669 101.017 72.82V74.43C101.019 74.4575 101.015 74.4851 101.006 74.5111C100.997 74.5371 100.983 74.561 100.964 74.5812C100.945 74.6014 100.922 74.6175 100.897 74.6284C100.871 74.6394 100.844 74.645 100.816 74.645V74.63ZM3.7017 73.5C3.67489 73.5 3.64835 73.4946 3.62364 73.4843C3.59893 73.4739 3.57656 73.4587 3.55783 73.4396C3.53911 73.4205 3.52442 73.3979 3.51462 73.373C3.50483 73.3482 3.50012 73.3216 3.5008 73.295V71.685C3.5008 71.6319 3.52196 71.5811 3.55964 71.5435C3.59732 71.506 3.64842 71.485 3.7017 71.485C3.75499 71.485 3.80609 71.506 3.84377 71.5435C3.88145 71.5811 3.90261 71.6319 3.90261 71.685V73.295C3.90328 73.3216 3.89858 73.3482 3.88879 73.373C3.87899 73.3979 3.8643 73.4205 3.84557 73.4396C3.82685 73.4587 3.80448 73.4739 3.77977 73.4843C3.75506 73.4946 3.72852 73.5 3.7017 73.5ZM100.816 70.63C100.79 70.63 100.764 70.6248 100.739 70.6147C100.715 70.6047 100.693 70.59 100.674 70.5714C100.655 70.5528 100.641 70.5308 100.631 70.5065C100.62 70.4822 100.615 70.4562 100.615 70.43V68.815C100.615 68.7619 100.636 68.7111 100.674 68.6735C100.712 68.636 100.763 68.615 100.816 68.615C100.869 68.615 100.921 68.636 100.958 68.6735C100.996 68.7111 101.017 68.7619 101.017 68.815V70.43C101.014 70.4813 100.992 70.5296 100.955 70.565C100.917 70.6003 100.868 70.62 100.816 70.62V70.63ZM3.7017 69.46C3.64842 69.46 3.59732 69.4389 3.55964 69.4014C3.52196 69.3639 3.5008 69.313 3.5008 69.26V68.42C3.50127 68.1415 3.54533 67.8649 3.63139 67.6C3.64862 67.5493 3.68505 67.5074 3.7329 67.4831C3.78076 67.4588 3.83625 67.4541 3.88755 67.47C3.91267 67.4784 3.93587 67.4917 3.95581 67.5091C3.97574 67.5266 3.99201 67.5477 4.00369 67.5714C4.01536 67.5951 4.0222 67.6209 4.02382 67.6473C4.02544 67.6736 4.0218 67.7 4.01311 67.725C3.94145 67.9498 3.9042 68.1841 3.90261 68.42V69.26C3.90261 69.313 3.88145 69.3639 3.84377 69.4014C3.80609 69.4389 3.75499 69.46 3.7017 69.46ZM100.007 66.825C99.9572 66.8229 99.9092 66.8035 99.8719 66.77C99.5011 66.438 99.0285 66.2407 98.5308 66.21C98.5044 66.208 98.4787 66.2009 98.4551 66.189C98.4314 66.1771 98.4104 66.1607 98.3931 66.1408C98.3583 66.1005 98.341 66.048 98.345 65.995C98.349 65.9419 98.3739 65.8926 98.4145 65.8579C98.455 65.8232 98.5076 65.806 98.5609 65.81C99.1478 65.8467 99.7052 66.0792 100.143 66.47C100.162 66.4886 100.177 66.5108 100.187 66.5352C100.198 66.5597 100.203 66.5859 100.203 66.6125C100.203 66.639 100.198 66.6652 100.187 66.6897C100.177 66.7142 100.162 66.7364 100.143 66.755C100.109 66.7947 100.06 66.8198 100.007 66.825ZM5.52495 66.28C5.47503 66.2814 5.42635 66.2644 5.38839 66.232C5.35043 66.1997 5.32593 66.1545 5.31966 66.1052C5.31339 66.0558 5.3258 66.006 5.35447 65.9653C5.38313 65.9245 5.42601 65.8959 5.47473 65.885C5.68806 65.8307 5.90749 65.8038 6.12768 65.805H7.13223C7.18551 65.805 7.23661 65.826 7.27429 65.8635C7.31197 65.9011 7.33314 65.9519 7.33314 66.005C7.33314 66.058 7.31197 66.1089 7.27429 66.1464C7.23661 66.1839 7.18551 66.205 7.13223 66.205H6.12768C5.94133 66.2057 5.75578 66.2293 5.57518 66.275L5.52495 66.28ZM96.1199 66.205H94.5026C94.4493 66.205 94.3982 66.1839 94.3605 66.1464C94.3228 66.1089 94.3017 66.058 94.3017 66.005C94.3017 65.9519 94.3228 65.9011 94.3605 65.8635C94.3982 65.826 94.4493 65.805 94.5026 65.805H96.1199C96.1732 65.805 96.2243 65.826 96.2619 65.8635C96.2996 65.9011 96.3208 65.9519 96.3208 66.005C96.3208 66.058 96.2996 66.1089 96.2619 66.1464C96.2243 66.1839 96.1732 66.205 96.1199 66.205ZM92.0766 66.205H90.4542C90.401 66.205 90.3499 66.1839 90.3122 66.1464C90.2745 66.1089 90.2533 66.058 90.2533 66.005C90.2533 65.9519 90.2745 65.9011 90.3122 65.8635C90.3499 65.826 90.401 65.805 90.4542 65.805H92.0766C92.1299 65.805 92.181 65.826 92.2187 65.8635C92.2563 65.9011 92.2775 65.9519 92.2775 66.005C92.2775 66.058 92.2563 66.1089 92.2187 66.1464C92.181 66.1839 92.1299 66.205 92.0766 66.205ZM88.0283 66.205H86.3909C86.3376 66.205 86.2865 66.1839 86.2488 66.1464C86.2111 66.1089 86.19 66.058 86.19 66.005C86.19 65.9519 86.2111 65.9011 86.2488 65.8635C86.2865 65.826 86.3376 65.805 86.3909 65.805H88.0082C88.0615 65.805 88.1126 65.826 88.1502 65.8635C88.1879 65.9011 88.2091 65.9519 88.2091 66.005C88.2091 66.058 88.1879 66.1089 88.1502 66.1464C88.1126 66.1839 88.0615 66.205 88.0082 66.205H88.0283ZM84.0101 66.205H82.3727C82.3194 66.205 82.2683 66.1839 82.2306 66.1464C82.1929 66.1089 82.1718 66.058 82.1718 66.005C82.1718 65.9519 82.1929 65.9011 82.2306 65.8635C82.2683 65.826 82.3194 65.805 82.3727 65.805H83.99C84.0433 65.805 84.0944 65.826 84.1321 65.8635C84.1697 65.9011 84.1909 65.9519 84.1909 66.005C84.1909 66.058 84.1697 66.1089 84.1321 66.1464C84.0944 66.1839 84.0433 66.205 83.99 66.205H84.0101ZM79.9668 66.205H78.3495C78.2962 66.205 78.2451 66.1839 78.2074 66.1464C78.1697 66.1089 78.1486 66.058 78.1486 66.005C78.1486 65.9519 78.1697 65.9011 78.2074 65.8635C78.2451 65.826 78.2962 65.805 78.3495 65.805H79.9668C80.0201 65.805 80.0712 65.826 80.1089 65.8635C80.1465 65.9011 80.1677 65.9519 80.1677 66.005C80.1677 66.058 80.1465 66.1089 80.1089 66.1464C80.0712 66.1839 80.0201 66.205 79.9668 66.205ZM75.9185 66.205H74.3012C74.2479 66.205 74.1968 66.1839 74.1591 66.1464C74.1214 66.1089 74.1003 66.058 74.1003 66.005C74.1003 65.9519 74.1214 65.9011 74.1591 65.8635C74.1968 65.826 74.2479 65.805 74.3012 65.805H75.9185C75.9718 65.805 76.0229 65.826 76.0605 65.8635C76.0982 65.9011 76.1194 65.9519 76.1194 66.005C76.1194 66.058 76.0982 66.1089 76.0605 66.1464C76.0229 66.1839 75.9718 66.205 75.9185 66.205ZM71.9003 66.205H70.283C70.2297 66.205 70.1786 66.1839 70.1409 66.1464C70.1032 66.1089 70.0821 66.058 70.0821 66.005C70.0821 65.9519 70.1032 65.9011 70.1409 65.8635C70.1786 65.826 70.2297 65.805 70.283 65.805H71.9003C71.9536 65.805 72.0047 65.826 72.0424 65.8635C72.08 65.9011 72.1012 65.9519 72.1012 66.005C72.1012 66.058 72.08 66.1089 72.0424 66.1464C72.0047 66.1839 71.9536 66.205 71.9003 66.205ZM67.857 66.205H66.2397C66.1864 66.205 66.1353 66.1839 66.0976 66.1464C66.0599 66.1089 66.0388 66.058 66.0388 66.005C66.0388 65.9519 66.0599 65.9011 66.0976 65.8635C66.1353 65.826 66.1864 65.805 66.2397 65.805H67.8068C67.8601 65.805 67.9112 65.826 67.9488 65.8635C67.9865 65.9011 68.0077 65.9519 68.0077 66.005C68.0077 66.058 67.9865 66.1089 67.9488 66.1464C67.9112 66.1839 67.8601 66.205 67.8068 66.205H67.857ZM63.8388 66.205H62.2165C62.1632 66.205 62.1121 66.1839 62.0744 66.1464C62.0367 66.1089 62.0156 66.058 62.0156 66.005C62.0156 65.9519 62.0367 65.9011 62.0744 65.8635C62.1121 65.826 62.1632 65.805 62.2165 65.805H63.7886C63.8419 65.805 63.893 65.826 63.9307 65.8635C63.9683 65.9011 63.9895 65.9519 63.9895 66.005C63.9895 66.058 63.9683 66.1089 63.9307 66.1464C63.893 66.1839 63.8419 66.205 63.7886 66.205H63.8388ZM59.7905 66.205H58.1732C58.1199 66.205 58.0688 66.1839 58.0311 66.1464C57.9934 66.1089 57.9723 66.058 57.9723 66.005C57.9723 65.9519 57.9934 65.9011 58.0311 65.8635C58.0688 65.826 58.1199 65.805 58.1732 65.805H59.7905C59.8438 65.805 59.8949 65.826 59.9326 65.8635C59.9702 65.9011 59.9914 65.9519 59.9914 66.005C59.9914 66.058 59.9702 66.1089 59.9326 66.1464C59.8949 66.1839 59.8438 66.205 59.7905 66.205ZM55.7723 66.205H54.155C54.1017 66.205 54.0506 66.1839 54.0129 66.1464C53.9753 66.1089 53.9541 66.058 53.9541 66.005C53.9541 65.9519 53.9753 65.9011 54.0129 65.8635C54.0506 65.826 54.1017 65.805 54.155 65.805H55.7723C55.8256 65.805 55.8767 65.826 55.9144 65.8635C55.9521 65.9011 55.9732 65.9519 55.9732 66.005C55.9732 66.058 55.9521 66.1089 55.9144 66.1464C55.8767 66.1839 55.8256 66.205 55.7723 66.205ZM51.7541 66.205H50.0112C49.958 66.205 49.9069 66.1839 49.8692 66.1464C49.8315 66.1089 49.8103 66.058 49.8103 66.005C49.8103 65.9519 49.8315 65.9011 49.8692 65.8635C49.9069 65.826 49.958 65.805 50.0112 65.805H51.6286C51.6819 65.805 51.733 65.826 51.7706 65.8635C51.8083 65.9011 51.8295 65.9519 51.8295 66.005C51.8295 66.058 51.8083 66.1089 51.7706 66.1464C51.733 66.1839 51.6819 66.205 51.6286 66.205H51.7541ZM47.7058 66.205H45.9629C45.9096 66.205 45.8585 66.1839 45.8209 66.1464C45.7832 66.1089 45.762 66.058 45.762 66.005C45.762 65.9519 45.7832 65.9011 45.8209 65.8635C45.8585 65.826 45.9096 65.805 45.9629 65.805H47.5803C47.6335 65.805 47.6846 65.826 47.7223 65.8635C47.76 65.9011 47.7812 65.9519 47.7812 66.005C47.7812 66.058 47.76 66.1089 47.7223 66.1464C47.6846 66.1839 47.6335 66.205 47.5803 66.205H47.7058ZM43.6876 66.205H41.9196C41.8664 66.205 41.8153 66.1839 41.7776 66.1464C41.7399 66.1089 41.7187 66.058 41.7187 66.005C41.7187 65.9519 41.7399 65.9011 41.7776 65.8635C41.8153 65.826 41.8664 65.805 41.9196 65.805H43.537C43.5902 65.805 43.6413 65.826 43.679 65.8635C43.7167 65.9011 43.7379 65.9519 43.7379 66.005C43.7379 66.058 43.7167 66.1089 43.679 66.1464C43.6413 66.1839 43.5902 66.205 43.537 66.205H43.6876ZM39.6443 66.205H37.8763C37.8231 66.205 37.772 66.1839 37.7343 66.1464C37.6966 66.1089 37.6754 66.058 37.6754 66.005C37.6754 65.9519 37.6966 65.9011 37.7343 65.8635C37.772 65.826 37.8231 65.805 37.8763 65.805H39.4937C39.5469 65.805 39.598 65.826 39.6357 65.8635C39.6734 65.9011 39.6946 65.9519 39.6946 66.005C39.6946 66.058 39.6734 66.1089 39.6357 66.1464C39.598 66.1839 39.5469 66.205 39.4937 66.205H39.6443ZM35.596 66.205H33.828C33.7747 66.205 33.7236 66.1839 33.686 66.1464C33.6483 66.1089 33.6271 66.058 33.6271 66.005C33.6271 65.9519 33.6483 65.9011 33.686 65.8635C33.7236 65.826 33.7747 65.805 33.828 65.805H35.4453C35.4986 65.805 35.5497 65.826 35.5874 65.8635C35.6251 65.9011 35.6463 65.9519 35.6463 66.005C35.6463 66.058 35.6251 66.1089 35.5874 66.1464C35.5497 66.1839 35.4986 66.205 35.4453 66.205H35.596ZM31.5778 66.205H29.7847C29.7314 66.205 29.6803 66.1839 29.6427 66.1464C29.605 66.1089 29.5838 66.058 29.5838 66.005C29.5838 65.9519 29.605 65.9011 29.6427 65.8635C29.6803 65.826 29.7314 65.805 29.7847 65.805H31.402C31.4553 65.805 31.5064 65.826 31.5441 65.8635C31.5818 65.9011 31.603 65.9519 31.603 66.005C31.603 66.058 31.5818 66.1089 31.5441 66.1464C31.5064 66.1839 31.4553 66.205 31.402 66.205H31.5778ZM27.5345 66.205H25.7414C25.6881 66.205 25.637 66.1839 25.5994 66.1464C25.5617 66.1089 25.5405 66.058 25.5405 66.005C25.5405 65.9519 25.5617 65.9011 25.5994 65.8635C25.637 65.826 25.6881 65.805 25.7414 65.805H27.3587C27.412 65.805 27.4631 65.826 27.5008 65.8635C27.5385 65.9011 27.5597 65.9519 27.5597 66.005C27.5597 66.058 27.5385 66.1089 27.5008 66.1464C27.4631 66.1839 27.412 66.205 27.3587 66.205H27.5345ZM23.5164 66.205H21.6931C21.6398 66.205 21.5887 66.1839 21.5511 66.1464C21.5134 66.1089 21.4922 66.058 21.4922 66.005C21.4922 65.9519 21.5134 65.9011 21.5511 65.8635C21.5887 65.826 21.6398 65.805 21.6931 65.805H23.3155C23.3687 65.805 23.4198 65.826 23.4575 65.8635C23.4952 65.9011 23.5164 65.9519 23.5164 66.005C23.5164 66.058 23.4952 66.1089 23.4575 66.1464C23.4198 66.1839 23.3687 66.205 23.3155 66.205H23.5164ZM19.468 66.205H17.6498C17.5965 66.205 17.5454 66.1839 17.5078 66.1464C17.4701 66.1089 17.4489 66.058 17.4489 66.005C17.4489 65.9519 17.4701 65.9011 17.5078 65.8635C17.5454 65.826 17.5965 65.805 17.6498 65.805H19.2671C19.3204 65.805 19.3715 65.826 19.4092 65.8635C19.4469 65.9011 19.468 65.9519 19.468 66.005C19.468 66.058 19.4469 66.1089 19.4092 66.1464C19.3715 66.1839 19.3204 66.205 19.2671 66.205H19.468ZM15.4499 66.205H13.6065C13.5532 66.205 13.5021 66.1839 13.4645 66.1464C13.4268 66.1089 13.4056 66.058 13.4056 66.005C13.4056 65.9519 13.4268 65.9011 13.4645 65.8635C13.5021 65.826 13.5532 65.805 13.6065 65.805H15.2238C15.2771 65.805 15.3282 65.826 15.3659 65.8635C15.4036 65.9011 15.4247 65.9519 15.4247 66.005C15.4247 66.058 15.4036 66.1089 15.3659 66.1464C15.3282 66.1839 15.2771 66.205 15.2238 66.205H15.4499ZM11.4317 66.205H9.54314C9.48985 66.205 9.43875 66.1839 9.40107 66.1464C9.36339 66.1089 9.34223 66.058 9.34223 66.005C9.34223 65.9519 9.36339 65.9011 9.40107 65.8635C9.43875 65.826 9.48985 65.805 9.54314 65.805H11.1605C11.2137 65.805 11.2648 65.826 11.3025 65.8635C11.3402 65.9011 11.3614 65.9519 11.3614 66.005C11.3614 66.058 11.3402 66.1089 11.3025 66.1464C11.2648 66.1839 11.2137 66.205 11.1605 66.205H11.4317Z" fill="#DBE1E9"/>
<path d="M214.872 3.54492H122.61C121.27 3.54492 120.184 4.62615 120.184 5.95992V48.0599C120.184 49.3937 121.27 50.4749 122.61 50.4749H214.872C216.212 50.4749 217.298 49.3937 217.298 48.0599V5.95992C217.298 4.62615 216.212 3.54492 214.872 3.54492Z" fill="white"/>
<path d="M165.439 8.32007H152.857C151.669 8.32007 150.707 9.27818 150.707 10.4601C150.707 11.642 151.669 12.6001 152.857 12.6001H165.439C166.626 12.6001 167.588 11.642 167.588 10.4601C167.588 9.27818 166.626 8.32007 165.439 8.32007Z" fill="#FFE9CC"/>
<path d="M151.621 42.115H126.894C125.707 42.115 124.745 43.0731 124.745 44.255C124.745 45.4369 125.707 46.395 126.894 46.395H151.621C152.808 46.395 153.771 45.4369 153.771 44.255C153.771 43.0731 152.808 42.115 151.621 42.115Z" fill="#FFF0F0"/>
<path d="M185.459 44.2525C185.459 43.141 184.554 42.24 183.438 42.24C182.321 42.24 181.416 43.141 181.416 44.2525C181.416 45.364 182.321 46.265 183.438 46.265C184.554 46.265 185.459 45.364 185.459 44.2525Z" fill="#CCE3FF"/>
<path d="M194.731 44.2525C194.731 43.141 193.826 42.24 192.71 42.24C191.593 42.24 190.688 43.141 190.688 44.2525C190.688 45.364 191.593 46.265 192.71 46.265C193.826 46.265 194.731 45.364 194.731 44.2525Z" fill="#CCF1D5"/>
<path d="M204.003 44.2525C204.003 43.141 203.098 42.24 201.981 42.24C200.865 42.24 199.96 43.141 199.96 44.2525C199.96 45.364 200.865 46.265 201.981 46.265C203.098 46.265 204.003 45.364 204.003 44.2525Z" fill="#CCEDFF"/>
<path d="M213.275 44.2525C213.275 43.141 212.37 42.24 211.253 42.24C210.137 42.24 209.232 43.141 209.232 44.2525C209.232 45.364 210.137 46.265 211.253 46.265C212.37 46.265 213.275 45.364 213.275 44.2525Z" fill="#FFE9CC"/>
<path d="M146.518 8.92993H124.694V12.1099H146.518V8.92993Z" fill="#F1F1F1"/>
<path d="M205.214 19.1299H124.694V22.3099H205.214V19.1299Z" fill="#F1F1F1"/>
<path d="M175.504 28H124.694V31.18H175.504V28Z" fill="#F1F1F1"/>
<path d="M209.774 14.4601C211.741 14.4601 213.335 12.864 213.335 10.8951C213.335 8.92618 211.741 7.33008 209.774 7.33008C207.807 7.33008 206.213 8.92618 206.213 10.8951C206.213 12.864 207.807 14.4601 209.774 14.4601Z" fill="#CCF1D5"/>
<path d="M212.823 37.855H124.81V38.005H212.823V37.855Z" fill="#F0F0F0"/>
<path d="M124.81 37.9299H188.729" stroke="#F0F0F0" stroke-width="0.3" stroke-miterlimit="10"/>
<path d="M214.872 113.14H213.255C213.226 113.145 213.196 113.143 213.167 113.135C213.138 113.127 213.112 113.113 213.089 113.093C213.067 113.074 213.048 113.05 213.036 113.023C213.023 112.996 213.017 112.967 213.017 112.937C213.017 112.908 213.023 112.879 213.036 112.852C213.048 112.825 213.067 112.801 213.089 112.782C213.112 112.762 213.138 112.748 213.167 112.74C213.196 112.732 213.226 112.73 213.255 112.735H214.872C215.248 112.735 215.618 112.641 215.947 112.46C215.971 112.447 215.996 112.438 216.023 112.435C216.05 112.432 216.077 112.435 216.102 112.442C216.128 112.449 216.152 112.462 216.173 112.479C216.194 112.496 216.211 112.516 216.223 112.54C216.247 112.587 216.253 112.642 216.238 112.693C216.223 112.744 216.189 112.788 216.143 112.815C215.753 113.027 215.316 113.138 214.872 113.14ZM210.829 113.14H209.207C209.158 113.132 209.114 113.108 209.082 113.071C209.05 113.034 209.033 112.986 209.033 112.937C209.033 112.889 209.05 112.841 209.082 112.804C209.114 112.767 209.158 112.743 209.207 112.735H210.829C210.877 112.743 210.922 112.767 210.954 112.804C210.985 112.841 211.003 112.889 211.003 112.937C211.003 112.986 210.985 113.034 210.954 113.071C210.922 113.108 210.877 113.132 210.829 113.14ZM206.781 113.14H205.163C205.115 113.132 205.071 113.108 205.039 113.071C205.007 113.034 204.99 112.986 204.99 112.937C204.99 112.889 205.007 112.841 205.039 112.804C205.071 112.767 205.115 112.743 205.163 112.735H206.781C206.81 112.73 206.84 112.732 206.869 112.74C206.897 112.748 206.924 112.762 206.947 112.782C206.969 112.801 206.987 112.825 207 112.852C207.012 112.879 207.019 112.908 207.019 112.937C207.019 112.967 207.012 112.996 207 113.023C206.987 113.05 206.969 113.074 206.947 113.093C206.924 113.113 206.897 113.127 206.869 113.135C206.84 113.143 206.81 113.145 206.781 113.14ZM202.737 113.14H201.12C201.072 113.132 201.028 113.108 200.996 113.071C200.964 113.034 200.946 112.986 200.946 112.937C200.946 112.889 200.964 112.841 200.996 112.804C201.028 112.767 201.072 112.743 201.12 112.735H202.737C202.786 112.743 202.83 112.767 202.862 112.804C202.894 112.841 202.911 112.889 202.911 112.937C202.911 112.986 202.894 113.034 202.862 113.071C202.83 113.108 202.786 113.132 202.737 113.14ZM198.694 113.14H197.077C197.047 113.145 197.017 113.143 196.989 113.135C196.96 113.127 196.934 113.113 196.911 113.093C196.888 113.074 196.87 113.05 196.858 113.023C196.845 112.996 196.839 112.967 196.839 112.937C196.839 112.908 196.845 112.879 196.858 112.852C196.87 112.825 196.888 112.801 196.911 112.782C196.934 112.762 196.96 112.748 196.989 112.74C197.017 112.732 197.047 112.73 197.077 112.735H198.694C198.743 112.743 198.787 112.767 198.819 112.804C198.85 112.841 198.868 112.889 198.868 112.937C198.868 112.986 198.85 113.034 198.819 113.071C198.787 113.108 198.743 113.132 198.694 113.14ZM194.646 113.14H193.028C192.98 113.132 192.936 113.108 192.904 113.071C192.872 113.034 192.855 112.986 192.855 112.937C192.855 112.889 192.872 112.841 192.904 112.804C192.936 112.767 192.98 112.743 193.028 112.735H194.646C194.675 112.73 194.705 112.732 194.734 112.74C194.763 112.748 194.789 112.762 194.812 112.782C194.834 112.801 194.852 112.825 194.865 112.852C194.877 112.879 194.884 112.908 194.884 112.937C194.884 112.967 194.877 112.996 194.865 113.023C194.852 113.05 194.834 113.074 194.812 113.093C194.789 113.113 194.763 113.127 194.734 113.135C194.705 113.143 194.675 113.145 194.646 113.14ZM190.628 113.14H189.01C188.962 113.132 188.918 113.108 188.886 113.071C188.854 113.034 188.836 112.986 188.836 112.937C188.836 112.889 188.854 112.841 188.886 112.804C188.918 112.767 188.962 112.743 189.01 112.735H190.628C190.676 112.743 190.72 112.767 190.752 112.804C190.784 112.841 190.801 112.889 190.801 112.937C190.801 112.986 190.784 113.034 190.752 113.071C190.72 113.108 190.676 113.132 190.628 113.14ZM186.584 113.14H184.967C184.938 113.145 184.908 113.143 184.879 113.135C184.85 113.127 184.824 113.113 184.801 113.093C184.779 113.074 184.76 113.05 184.748 113.023C184.735 112.996 184.729 112.967 184.729 112.937C184.729 112.908 184.735 112.879 184.748 112.852C184.76 112.825 184.779 112.801 184.801 112.782C184.824 112.762 184.85 112.748 184.879 112.74C184.908 112.732 184.938 112.73 184.967 112.735H186.584C186.633 112.743 186.677 112.767 186.709 112.804C186.741 112.841 186.758 112.889 186.758 112.937C186.758 112.986 186.741 113.034 186.709 113.071C186.677 113.108 186.633 113.132 186.584 113.14ZM182.541 113.14H180.919C180.87 113.132 180.826 113.108 180.794 113.071C180.762 113.034 180.745 112.986 180.745 112.937C180.745 112.889 180.762 112.841 180.794 112.804C180.826 112.767 180.87 112.743 180.919 112.735H182.541C182.589 112.743 182.634 112.767 182.666 112.804C182.697 112.841 182.715 112.889 182.715 112.937C182.715 112.986 182.697 113.034 182.666 113.071C182.634 113.108 182.589 113.132 182.541 113.14ZM178.493 113.14H176.85C176.802 113.132 176.758 113.108 176.726 113.071C176.694 113.034 176.676 112.986 176.676 112.937C176.676 112.889 176.694 112.841 176.726 112.804C176.758 112.767 176.802 112.743 176.85 112.735H178.468C178.516 112.743 178.56 112.767 178.592 112.804C178.624 112.841 178.641 112.889 178.641 112.937C178.641 112.986 178.624 113.034 178.592 113.071C178.56 113.108 178.516 113.132 178.468 113.14H178.493ZM174.449 113.14H172.832C172.784 113.132 172.74 113.108 172.708 113.071C172.676 113.034 172.658 112.986 172.658 112.937C172.658 112.889 172.676 112.841 172.708 112.804C172.74 112.767 172.784 112.743 172.832 112.735H174.449C174.498 112.743 174.542 112.767 174.574 112.804C174.606 112.841 174.623 112.889 174.623 112.937C174.623 112.986 174.606 113.034 174.574 113.071C174.542 113.108 174.498 113.132 174.449 113.14ZM170.431 113.14H168.764C168.734 113.145 168.704 113.143 168.676 113.135C168.647 113.127 168.62 113.113 168.598 113.093C168.575 113.074 168.557 113.05 168.545 113.023C168.532 112.996 168.526 112.967 168.526 112.937C168.526 112.908 168.532 112.879 168.545 112.852C168.557 112.825 168.575 112.801 168.598 112.782C168.62 112.762 168.647 112.748 168.676 112.74C168.704 112.732 168.734 112.73 168.764 112.735H170.381C170.429 112.743 170.474 112.767 170.505 112.804C170.537 112.841 170.555 112.889 170.555 112.937C170.555 112.986 170.537 113.034 170.505 113.071C170.474 113.108 170.429 113.132 170.381 113.14H170.431ZM166.383 113.14H164.766C164.717 113.132 164.673 113.108 164.641 113.071C164.609 113.034 164.592 112.986 164.592 112.937C164.592 112.889 164.609 112.841 164.641 112.804C164.673 112.767 164.717 112.743 164.766 112.735H166.383C166.412 112.73 166.442 112.732 166.471 112.74C166.5 112.748 166.526 112.762 166.549 112.782C166.571 112.801 166.59 112.825 166.602 112.852C166.614 112.879 166.621 112.908 166.621 112.937C166.621 112.967 166.614 112.996 166.602 113.023C166.59 113.05 166.571 113.074 166.549 113.093C166.526 113.113 166.5 113.127 166.471 113.135C166.442 113.143 166.412 113.145 166.383 113.14ZM162.34 113.14H160.722C160.674 113.132 160.63 113.108 160.598 113.071C160.566 113.034 160.548 112.986 160.548 112.937C160.548 112.889 160.566 112.841 160.598 112.804C160.63 112.767 160.674 112.743 160.722 112.735H162.34C162.388 112.743 162.432 112.767 162.464 112.804C162.496 112.841 162.513 112.889 162.513 112.937C162.513 112.986 162.496 113.034 162.464 113.071C162.432 113.108 162.388 113.132 162.34 113.14ZM158.296 113.14H156.679C156.65 113.145 156.62 113.143 156.591 113.135C156.562 113.127 156.536 113.113 156.513 113.093C156.491 113.074 156.472 113.05 156.46 113.023C156.447 112.996 156.441 112.967 156.441 112.937C156.441 112.908 156.447 112.879 156.46 112.852C156.472 112.825 156.491 112.801 156.513 112.782C156.536 112.762 156.562 112.748 156.591 112.74C156.62 112.732 156.65 112.73 156.679 112.735H158.296C158.345 112.743 158.389 112.767 158.421 112.804C158.453 112.841 158.47 112.889 158.47 112.937C158.47 112.986 158.453 113.034 158.421 113.071C158.389 113.108 158.345 113.132 158.296 113.14ZM154.248 113.14H152.631C152.582 113.132 152.538 113.108 152.506 113.071C152.474 113.034 152.457 112.986 152.457 112.937C152.457 112.889 152.474 112.841 152.506 112.804C152.538 112.767 152.582 112.743 152.631 112.735H154.198C154.227 112.73 154.257 112.732 154.286 112.74C154.314 112.748 154.341 112.762 154.364 112.782C154.386 112.801 154.404 112.825 154.417 112.852C154.429 112.879 154.436 112.908 154.436 112.937C154.436 112.967 154.429 112.996 154.417 113.023C154.404 113.05 154.386 113.074 154.364 113.093C154.341 113.113 154.314 113.127 154.286 113.135C154.257 113.143 154.227 113.145 154.198 113.14H154.248ZM150.205 113.14H148.587C148.539 113.132 148.495 113.108 148.463 113.071C148.431 113.034 148.414 112.986 148.414 112.937C148.414 112.889 148.431 112.841 148.463 112.804C148.495 112.767 148.539 112.743 148.587 112.735H150.18C150.228 112.743 150.272 112.767 150.304 112.804C150.336 112.841 150.353 112.889 150.353 112.937C150.353 112.986 150.336 113.034 150.304 113.071C150.272 113.108 150.228 113.132 150.18 113.14H150.205ZM146.161 113.14H144.544C144.515 113.145 144.485 113.143 144.456 113.135C144.427 113.127 144.401 113.113 144.378 113.093C144.356 113.074 144.337 113.05 144.325 113.023C144.313 112.996 144.306 112.967 144.306 112.937C144.306 112.908 144.313 112.879 144.325 112.852C144.337 112.825 144.356 112.801 144.378 112.782C144.401 112.762 144.427 112.748 144.456 112.74C144.485 112.732 144.515 112.73 144.544 112.735H146.161C146.21 112.743 146.254 112.767 146.286 112.804C146.318 112.841 146.335 112.889 146.335 112.937C146.335 112.986 146.318 113.034 146.286 113.071C146.254 113.108 146.21 113.132 146.161 113.14ZM142.143 113.14H140.521C140.472 113.132 140.428 113.108 140.396 113.071C140.365 113.034 140.347 112.986 140.347 112.937C140.347 112.889 140.365 112.841 140.396 112.804C140.428 112.767 140.472 112.743 140.521 112.735H142.143C142.192 112.743 142.236 112.767 142.268 112.804C142.3 112.841 142.317 112.889 142.317 112.937C142.317 112.986 142.3 113.034 142.268 113.071C142.236 113.108 142.192 113.132 142.143 113.14ZM138.095 113.14H136.478C136.429 113.132 136.385 113.108 136.353 113.071C136.321 113.034 136.304 112.986 136.304 112.937C136.304 112.889 136.321 112.841 136.353 112.804C136.385 112.767 136.429 112.743 136.478 112.735H138.095C138.124 112.73 138.154 112.732 138.183 112.74C138.212 112.748 138.238 112.762 138.261 112.782C138.283 112.801 138.302 112.825 138.314 112.852C138.326 112.879 138.333 112.908 138.333 112.937C138.333 112.967 138.326 112.996 138.314 113.023C138.302 113.05 138.283 113.074 138.261 113.093C138.238 113.113 138.212 113.127 138.183 113.135C138.154 113.143 138.124 113.145 138.095 113.14ZM134.052 113.14H132.434C132.386 113.132 132.342 113.108 132.31 113.071C132.278 113.034 132.26 112.986 132.26 112.937C132.26 112.889 132.278 112.841 132.31 112.804C132.342 112.767 132.386 112.743 132.434 112.735H134.052C134.1 112.743 134.144 112.767 134.176 112.804C134.208 112.841 134.226 112.889 134.226 112.937C134.226 112.986 134.208 113.034 134.176 113.071C134.144 113.108 134.1 113.132 134.052 113.14ZM130.008 113.14H128.391C128.362 113.145 128.332 113.143 128.303 113.135C128.274 113.127 128.248 113.113 128.225 113.093C128.203 113.074 128.184 113.05 128.172 113.023C128.159 112.996 128.153 112.967 128.153 112.937C128.153 112.908 128.159 112.879 128.172 112.852C128.184 112.825 128.203 112.801 128.225 112.782C128.248 112.762 128.274 112.748 128.303 112.74C128.332 112.732 128.362 112.73 128.391 112.735H130.008C130.057 112.743 130.101 112.767 130.133 112.804C130.165 112.841 130.182 112.889 130.182 112.937C130.182 112.986 130.165 113.034 130.133 113.071C130.101 113.108 130.057 113.132 130.008 113.14ZM125.96 113.14H124.343C124.294 113.132 124.25 113.108 124.218 113.071C124.186 113.034 124.169 112.986 124.169 112.937C124.169 112.889 124.186 112.841 124.218 112.804C124.25 112.767 124.294 112.743 124.343 112.735H125.96C125.989 112.73 126.019 112.732 126.048 112.74C126.077 112.748 126.103 112.762 126.126 112.782C126.148 112.801 126.167 112.825 126.179 112.852C126.192 112.879 126.198 112.908 126.198 112.937C126.198 112.967 126.192 112.996 126.179 113.023C126.167 113.05 126.148 113.074 126.126 113.093C126.103 113.113 126.077 113.127 126.048 113.135C126.019 113.143 125.989 113.145 125.96 113.14ZM121.942 113.02H121.877C121.317 112.835 120.836 112.469 120.51 111.98C120.495 111.959 120.484 111.934 120.478 111.909C120.472 111.883 120.472 111.856 120.477 111.83C120.482 111.804 120.493 111.78 120.508 111.758C120.523 111.737 120.543 111.719 120.566 111.705C120.588 111.69 120.612 111.679 120.639 111.674C120.665 111.669 120.692 111.669 120.718 111.674C120.744 111.679 120.769 111.689 120.791 111.704C120.813 111.719 120.832 111.738 120.847 111.76C121.124 112.171 121.53 112.479 122.002 112.635C122.053 112.645 122.097 112.674 122.127 112.716C122.157 112.758 122.169 112.81 122.161 112.861C122.153 112.912 122.126 112.958 122.085 112.989C122.045 113.021 121.993 113.035 121.942 113.03V113.02ZM217.374 110.885C217.347 110.883 217.321 110.876 217.298 110.864C217.274 110.852 217.253 110.836 217.236 110.816C217.219 110.796 217.205 110.773 217.197 110.748C217.189 110.723 217.186 110.696 217.188 110.67C217.188 110.62 217.188 110.57 217.188 110.52V109.07C217.188 109.017 217.209 108.966 217.247 108.929C217.284 108.891 217.335 108.87 217.389 108.87C217.442 108.87 217.493 108.891 217.531 108.929C217.568 108.966 217.59 109.017 217.59 109.07V110.5C217.59 110.56 217.59 110.62 217.59 110.675C217.596 110.712 217.592 110.751 217.578 110.786C217.564 110.821 217.54 110.852 217.508 110.874C217.477 110.896 217.441 110.908 217.403 110.91C217.364 110.912 217.327 110.904 217.293 110.885H217.374ZM120.264 109.725C120.211 109.725 120.16 109.704 120.122 109.666C120.084 109.629 120.063 109.578 120.063 109.525V107.915C120.063 107.862 120.084 107.811 120.122 107.774C120.16 107.736 120.211 107.715 120.264 107.715C120.318 107.715 120.369 107.736 120.406 107.774C120.444 107.811 120.465 107.862 120.465 107.915V109.525C120.468 109.56 120.462 109.594 120.447 109.626C120.433 109.657 120.41 109.685 120.382 109.705C120.353 109.725 120.32 109.737 120.286 109.741C120.251 109.744 120.216 109.739 120.184 109.725H120.264ZM217.379 106.855C217.325 106.855 217.274 106.834 217.237 106.796C217.199 106.759 217.178 106.708 217.178 106.655V105.045C217.178 104.992 217.199 104.941 217.237 104.904C217.274 104.866 217.325 104.845 217.379 104.845C217.432 104.845 217.483 104.866 217.521 104.904C217.558 104.941 217.58 104.992 217.58 105.045V106.655C217.583 106.69 217.576 106.724 217.562 106.756C217.547 106.787 217.525 106.815 217.496 106.835C217.468 106.855 217.435 106.867 217.4 106.871C217.365 106.874 217.33 106.869 217.298 106.855H217.379ZM120.184 105.7C120.131 105.7 120.079 105.679 120.042 105.641C120.004 105.604 119.983 105.553 119.983 105.5V103.89C119.983 103.837 120.004 103.786 120.042 103.749C120.079 103.711 120.131 103.69 120.184 103.69C120.237 103.69 120.288 103.711 120.326 103.749C120.364 103.786 120.385 103.837 120.385 103.89V105.5C120.385 105.553 120.364 105.604 120.326 105.641C120.288 105.679 120.237 105.7 120.184 105.7ZM217.298 102.83C217.245 102.83 217.194 102.809 217.156 102.771C217.119 102.734 217.097 102.683 217.097 102.63V101C217.097 100.947 217.119 100.896 217.156 100.859C217.194 100.821 217.245 100.8 217.298 100.8C217.352 100.8 217.403 100.821 217.44 100.859C217.478 100.896 217.499 100.947 217.499 101V102.61C217.502 102.638 217.499 102.666 217.49 102.693C217.481 102.719 217.467 102.744 217.448 102.764C217.429 102.785 217.406 102.802 217.38 102.813C217.354 102.824 217.326 102.83 217.298 102.83ZM120.184 101.675C120.157 101.675 120.131 101.67 120.106 101.659C120.081 101.649 120.059 101.634 120.04 101.615C120.021 101.596 120.007 101.573 119.997 101.548C119.987 101.523 119.982 101.497 119.983 101.47V99.86C119.983 99.8069 120.004 99.7561 120.042 99.7185C120.079 99.681 120.131 99.66 120.184 99.66C120.237 99.66 120.288 99.681 120.326 99.7185C120.364 99.7561 120.385 99.8069 120.385 99.86V101.47C120.385 101.497 120.381 101.523 120.371 101.548C120.361 101.573 120.346 101.596 120.328 101.615C120.309 101.634 120.287 101.649 120.262 101.659C120.237 101.67 120.211 101.675 120.184 101.675ZM217.298 98.805C217.245 98.805 217.194 98.7839 217.156 98.7464C217.119 98.7089 217.097 98.658 217.097 98.605V97C217.097 96.9469 217.119 96.8961 217.156 96.8585C217.194 96.821 217.245 96.8 217.298 96.8C217.352 96.8 217.403 96.821 217.44 96.8585C217.478 96.8961 217.499 96.9469 217.499 97V98.61C217.498 98.6621 217.476 98.7117 217.439 98.7482C217.401 98.7846 217.351 98.805 217.298 98.805ZM120.184 97.645C120.131 97.645 120.079 97.6239 120.042 97.5864C120.004 97.5489 119.983 97.498 119.983 97.445V95.835C119.983 95.7819 120.004 95.7311 120.042 95.6935C120.079 95.656 120.131 95.635 120.184 95.635C120.237 95.635 120.288 95.656 120.326 95.6935C120.364 95.7311 120.385 95.7819 120.385 95.835V97.445C120.385 97.498 120.364 97.5489 120.326 97.5864C120.288 97.6239 120.237 97.645 120.184 97.645ZM217.298 94.78C217.271 94.78 217.245 94.7746 217.22 94.7643C217.196 94.7539 217.173 94.7387 217.154 94.7196C217.136 94.7005 217.121 94.6779 217.111 94.653C217.101 94.6282 217.097 94.6016 217.097 94.575V92.965C217.097 92.9119 217.119 92.8611 217.156 92.8235C217.194 92.786 217.245 92.765 217.298 92.765C217.352 92.765 217.403 92.786 217.44 92.8235C217.478 92.8611 217.499 92.9119 217.499 92.965V94.575C217.5 94.6016 217.495 94.6282 217.485 94.653C217.476 94.6779 217.461 94.7005 217.442 94.7196C217.423 94.7387 217.401 94.7539 217.376 94.7643C217.352 94.7746 217.325 94.78 217.298 94.78ZM120.184 93.62C120.131 93.62 120.079 93.5989 120.042 93.5614C120.004 93.5239 119.983 93.473 119.983 93.42V91.81C119.983 91.7569 120.004 91.7061 120.042 91.6685C120.079 91.631 120.131 91.61 120.184 91.61C120.237 91.61 120.288 91.631 120.326 91.6685C120.364 91.7061 120.385 91.7569 120.385 91.81V93.42C120.385 93.473 120.364 93.5239 120.326 93.5614C120.288 93.5989 120.237 93.62 120.184 93.62ZM217.298 90.75C217.245 90.75 217.194 90.7289 217.156 90.6914C217.119 90.6539 217.097 90.603 217.097 90.55V88.94C217.097 88.8869 217.119 88.8361 217.156 88.7985C217.194 88.761 217.245 88.74 217.298 88.74C217.352 88.74 217.403 88.761 217.44 88.7985C217.478 88.8361 217.499 88.8869 217.499 88.94V90.55C217.499 90.603 217.478 90.6539 217.44 90.6914C217.403 90.7289 217.352 90.75 217.298 90.75ZM120.184 89.595C120.157 89.595 120.131 89.5896 120.106 89.5793C120.081 89.5689 120.059 89.5537 120.04 89.5346C120.021 89.5155 120.007 89.4929 119.997 89.468C119.987 89.4432 119.982 89.4166 119.983 89.39V87.78C119.983 87.7269 120.004 87.6761 120.042 87.6385C120.079 87.601 120.131 87.58 120.184 87.58C120.237 87.58 120.288 87.601 120.326 87.6385C120.364 87.6761 120.385 87.7269 120.385 87.78V89.39C120.385 89.4166 120.381 89.4432 120.371 89.468C120.361 89.4929 120.346 89.5155 120.328 89.5346C120.309 89.5537 120.287 89.5689 120.262 89.5793C120.237 89.5896 120.211 89.595 120.184 89.595ZM217.298 86.725C217.272 86.725 217.246 86.7198 217.221 86.7097C217.197 86.6997 217.175 86.685 217.156 86.6664C217.138 86.6478 217.123 86.6258 217.113 86.6015C217.103 86.5772 217.097 86.5512 217.097 86.525V84.915C217.097 84.8619 217.119 84.8111 217.156 84.7735C217.194 84.736 217.245 84.715 217.298 84.715C217.352 84.715 217.403 84.736 217.44 84.7735C217.478 84.8111 217.499 84.8619 217.499 84.915V86.525C217.499 86.5512 217.494 86.5772 217.484 86.6015C217.474 86.6258 217.459 86.6478 217.44 86.6664C217.422 86.685 217.4 86.6997 217.375 86.7097C217.351 86.7198 217.325 86.725 217.298 86.725ZM120.184 85.565C120.131 85.565 120.079 85.5439 120.042 85.5064C120.004 85.4689 119.983 85.418 119.983 85.365V83.755C119.983 83.7019 120.004 83.6511 120.042 83.6135C120.079 83.576 120.131 83.555 120.184 83.555C120.237 83.555 120.288 83.576 120.326 83.6135C120.364 83.6511 120.385 83.7019 120.385 83.755V85.365C120.385 85.418 120.364 85.4689 120.326 85.5064C120.288 85.5439 120.237 85.565 120.184 85.565ZM217.298 82.7C217.271 82.7 217.245 82.6946 217.22 82.6843C217.196 82.6739 217.173 82.6587 217.154 82.6396C217.136 82.6205 217.121 82.5979 217.111 82.573C217.101 82.5482 217.097 82.5217 217.097 82.495V80.885C217.097 80.8319 217.119 80.7811 217.156 80.7435C217.194 80.706 217.245 80.685 217.298 80.685C217.352 80.685 217.403 80.706 217.44 80.7435C217.478 80.7811 217.499 80.8319 217.499 80.885V82.5C217.499 82.553 217.478 82.6039 217.44 82.6414C217.403 82.6789 217.352 82.7 217.298 82.7ZM120.184 81.54C120.131 81.54 120.079 81.5189 120.042 81.4814C120.004 81.4439 119.983 81.393 119.983 81.34V79.73C119.983 79.6769 120.004 79.6261 120.042 79.5885C120.079 79.551 120.131 79.53 120.184 79.53C120.237 79.53 120.288 79.551 120.326 79.5885C120.364 79.6261 120.385 79.6769 120.385 79.73V81.34C120.385 81.393 120.364 81.4439 120.326 81.4814C120.288 81.5189 120.237 81.54 120.184 81.54ZM217.298 78.67C217.245 78.67 217.194 78.6489 217.156 78.6114C217.119 78.5739 217.097 78.523 217.097 78.47V76.86C217.097 76.8069 217.119 76.7561 217.156 76.7185C217.194 76.681 217.245 76.66 217.298 76.66C217.352 76.66 217.403 76.681 217.44 76.7185C217.478 76.7561 217.499 76.8069 217.499 76.86V78.47C217.499 78.523 217.478 78.5739 217.44 78.6114C217.403 78.6489 217.352 78.67 217.298 78.67ZM120.184 77.5C120.131 77.5 120.079 77.4789 120.042 77.4414C120.004 77.4039 119.983 77.353 119.983 77.3V75.7C119.983 75.6469 120.004 75.5961 120.042 75.5585C120.079 75.521 120.131 75.5 120.184 75.5C120.237 75.5 120.288 75.521 120.326 75.5585C120.364 75.5961 120.385 75.6469 120.385 75.7V77.315C120.381 77.3654 120.358 77.4125 120.321 77.4468C120.284 77.4811 120.235 77.5001 120.184 77.5ZM217.298 74.63C217.245 74.63 217.194 74.6089 217.156 74.5714C217.119 74.5339 217.097 74.483 217.097 74.43V72.82C217.097 72.7669 217.119 72.7161 217.156 72.6785C217.194 72.641 217.245 72.62 217.298 72.62C217.352 72.62 217.403 72.641 217.44 72.6785C217.478 72.7161 217.499 72.7669 217.499 72.82V74.43C217.501 74.4575 217.498 74.4851 217.488 74.5111C217.479 74.5371 217.465 74.561 217.446 74.5812C217.427 74.6014 217.404 74.6175 217.379 74.6284C217.353 74.6394 217.326 74.645 217.298 74.645V74.63ZM120.184 73.5C120.157 73.5 120.131 73.4946 120.106 73.4843C120.081 73.4739 120.059 73.4587 120.04 73.4396C120.021 73.4205 120.007 73.3979 119.997 73.373C119.987 73.3482 119.982 73.3216 119.983 73.295V71.685C119.983 71.6319 120.004 71.5811 120.042 71.5435C120.079 71.506 120.131 71.485 120.184 71.485C120.237 71.485 120.288 71.506 120.326 71.5435C120.364 71.5811 120.385 71.6319 120.385 71.685V73.295C120.385 73.3216 120.381 73.3482 120.371 73.373C120.361 73.3979 120.346 73.4205 120.328 73.4396C120.309 73.4587 120.287 73.4739 120.262 73.4843C120.237 73.4946 120.211 73.5 120.184 73.5ZM217.298 70.63C217.245 70.63 217.194 70.6089 217.156 70.5714C217.119 70.5339 217.097 70.483 217.097 70.43V68.815C217.097 68.7619 217.119 68.7111 217.156 68.6735C217.194 68.636 217.245 68.615 217.298 68.615C217.352 68.615 217.403 68.636 217.44 68.6735C217.478 68.7111 217.499 68.7619 217.499 68.815V70.43C217.497 70.4813 217.474 70.5296 217.437 70.565C217.4 70.6003 217.35 70.62 217.298 70.62V70.63ZM120.184 69.47C120.157 69.47 120.131 69.4648 120.107 69.4547C120.083 69.4447 120.06 69.43 120.042 69.4114C120.023 69.3928 120.008 69.3708 119.998 69.3465C119.988 69.3222 119.983 69.2962 119.983 69.27V68.43C119.983 68.1515 120.028 67.8749 120.114 67.61C120.122 67.5847 120.135 67.5613 120.152 67.5411C120.17 67.5208 120.191 67.5042 120.215 67.4922C120.238 67.4801 120.264 67.4728 120.291 67.4707C120.318 67.4686 120.344 67.4718 120.37 67.48C120.395 67.4882 120.419 67.5013 120.439 67.5185C120.459 67.5358 120.476 67.5569 120.488 67.5805C120.5 67.6042 120.508 67.63 120.51 67.6565C120.512 67.683 120.509 67.7097 120.5 67.735C120.425 67.959 120.386 68.1936 120.385 68.43V69.27C120.382 69.3213 120.36 69.3696 120.323 69.405C120.285 69.4403 120.235 69.46 120.184 69.46V69.47ZM216.48 66.825C216.431 66.824 216.384 66.8043 216.349 66.77C215.977 66.4397 215.505 66.2426 215.008 66.21C214.981 66.2087 214.955 66.2021 214.931 66.1905C214.906 66.179 214.885 66.1627 214.867 66.1426C214.849 66.1226 214.835 66.0992 214.827 66.0738C214.818 66.0485 214.815 66.0216 214.817 65.995C214.818 65.9684 214.825 65.9424 214.837 65.9186C214.848 65.8947 214.865 65.8734 214.885 65.8561C214.905 65.8388 214.929 65.8258 214.954 65.8178C214.98 65.8099 215.007 65.8072 215.033 65.81C215.62 65.8467 216.177 66.0792 216.615 66.47C216.634 66.4886 216.649 66.5108 216.66 66.5352C216.67 66.5597 216.675 66.5859 216.675 66.6125C216.675 66.639 216.67 66.6652 216.66 66.6897C216.649 66.7142 216.634 66.7364 216.615 66.755C216.599 66.7755 216.578 66.7924 216.555 66.8045C216.532 66.8165 216.506 66.8235 216.48 66.825ZM121.997 66.28C121.947 66.2814 121.898 66.2644 121.861 66.232C121.823 66.1997 121.798 66.1545 121.792 66.1052C121.786 66.0558 121.798 66.006 121.827 65.9653C121.855 65.9245 121.898 65.8959 121.947 65.885C122.16 65.8307 122.38 65.8038 122.6 65.805H123.604C123.658 65.805 123.709 65.826 123.746 65.8635C123.784 65.9011 123.805 65.9519 123.805 66.005C123.805 66.058 123.784 66.1089 123.746 66.1464C123.709 66.1839 123.658 66.205 123.604 66.205H122.6C122.413 66.2057 122.228 66.2293 122.047 66.275L121.997 66.28ZM212.592 66.205H210.975C210.921 66.205 210.87 66.1839 210.833 66.1464C210.795 66.1089 210.774 66.058 210.774 66.005C210.774 65.9519 210.795 65.9011 210.833 65.8635C210.87 65.826 210.921 65.805 210.975 65.805H212.592C212.645 65.805 212.696 65.826 212.734 65.8635C212.772 65.9011 212.793 65.9519 212.793 66.005C212.793 66.058 212.772 66.1089 212.734 66.1464C212.696 66.1839 212.645 66.205 212.592 66.205ZM208.574 66.205H206.936C206.883 66.205 206.832 66.1839 206.794 66.1464C206.757 66.1089 206.736 66.058 206.736 66.005C206.736 65.9519 206.757 65.9011 206.794 65.8635C206.832 65.826 206.883 65.805 206.936 65.805H208.554C208.607 65.805 208.658 65.826 208.696 65.8635C208.733 65.9011 208.755 65.9519 208.755 66.005C208.755 66.058 208.733 66.1089 208.696 66.1464C208.658 66.1839 208.607 66.205 208.554 66.205H208.574ZM204.526 66.205H202.918C202.865 66.205 202.814 66.1839 202.776 66.1464C202.739 66.1089 202.717 66.058 202.717 66.005C202.717 65.9519 202.739 65.9011 202.776 65.8635C202.814 65.826 202.865 65.805 202.918 65.805H204.536C204.589 65.805 204.64 65.826 204.678 65.8635C204.715 65.9011 204.736 65.9519 204.736 66.005C204.736 66.058 204.715 66.1089 204.678 66.1464C204.64 66.1839 204.589 66.205 204.536 66.205H204.526ZM200.482 66.205H198.85C198.797 66.205 198.745 66.1839 198.708 66.1464C198.67 66.1089 198.649 66.058 198.649 66.005C198.649 65.9519 198.67 65.9011 198.708 65.8635C198.745 65.826 198.797 65.805 198.85 65.805H200.467C200.52 65.805 200.572 65.826 200.609 65.8635C200.647 65.9011 200.668 65.9519 200.668 66.005C200.668 66.058 200.647 66.1089 200.609 66.1464C200.572 66.1839 200.52 66.205 200.467 66.205H200.482ZM196.439 66.205H194.822C194.768 66.205 194.717 66.1839 194.68 66.1464C194.642 66.1089 194.621 66.058 194.621 66.005C194.621 65.9519 194.642 65.9011 194.68 65.8635C194.717 65.826 194.768 65.805 194.822 65.805H196.439C196.492 65.805 196.543 65.826 196.581 65.8635C196.619 65.9011 196.64 65.9519 196.64 66.005C196.64 66.058 196.619 66.1089 196.581 66.1464C196.543 66.1839 196.492 66.205 196.439 66.205ZM192.396 66.205H190.773C190.72 66.205 190.669 66.1839 190.631 66.1464C190.594 66.1089 190.572 66.058 190.572 66.005C190.572 65.9519 190.594 65.9011 190.631 65.8635C190.669 65.826 190.72 65.805 190.773 65.805H192.371C192.424 65.805 192.475 65.826 192.513 65.8635C192.55 65.9011 192.571 65.9519 192.571 66.005C192.571 66.058 192.55 66.1089 192.513 66.1464C192.475 66.1839 192.424 66.205 192.371 66.205H192.396ZM188.347 66.205H186.73C186.677 66.205 186.626 66.1839 186.588 66.1464C186.55 66.1089 186.529 66.058 186.529 66.005C186.529 65.9519 186.55 65.9011 186.588 65.8635C186.626 65.826 186.677 65.805 186.73 65.805H188.352C188.406 65.805 188.457 65.826 188.494 65.8635C188.532 65.9011 188.553 65.9519 188.553 66.005C188.553 66.058 188.532 66.1089 188.494 66.1464C188.457 66.1839 188.406 66.205 188.352 66.205H188.347ZM184.329 66.205H182.712C182.659 66.205 182.607 66.1839 182.57 66.1464C182.532 66.1089 182.511 66.058 182.511 66.005C182.511 65.9519 182.532 65.9011 182.57 65.8635C182.607 65.826 182.659 65.805 182.712 65.805H184.329C184.382 65.805 184.434 65.826 184.471 65.8635C184.509 65.9011 184.53 65.9519 184.53 66.005C184.53 66.058 184.509 66.1089 184.471 66.1464C184.434 66.1839 184.382 66.205 184.329 66.205ZM180.286 66.205H178.669C178.615 66.205 178.564 66.1839 178.526 66.1464C178.489 66.1089 178.468 66.058 178.468 66.005C178.468 65.9519 178.489 65.9011 178.526 65.8635C178.564 65.826 178.615 65.805 178.669 65.805H180.286C180.339 65.805 180.39 65.826 180.428 65.8635C180.466 65.9011 180.487 65.9519 180.487 66.005C180.487 66.058 180.466 66.1089 180.428 66.1464C180.39 66.1839 180.339 66.205 180.286 66.205ZM176.238 66.205H174.62C174.567 66.205 174.516 66.1839 174.478 66.1464C174.44 66.1089 174.419 66.058 174.419 66.005C174.419 65.9519 174.44 65.9011 174.478 65.8635C174.516 65.826 174.567 65.805 174.62 65.805H176.238C176.291 65.805 176.342 65.826 176.38 65.8635C176.417 65.9011 176.438 65.9519 176.438 66.005C176.438 66.058 176.417 66.1089 176.38 66.1464C176.342 66.1839 176.291 66.205 176.238 66.205ZM172.194 66.205H170.577C170.524 66.205 170.473 66.1839 170.435 66.1464C170.397 66.1089 170.376 66.058 170.376 66.005C170.376 65.9519 170.397 65.9011 170.435 65.8635C170.473 65.826 170.524 65.805 170.577 65.805H172.194C172.247 65.805 172.299 65.826 172.336 65.8635C172.374 65.9011 172.395 65.9519 172.395 66.005C172.395 66.058 172.374 66.1089 172.336 66.1464C172.299 66.1839 172.247 66.205 172.194 66.205ZM168.151 66.205H166.534C166.48 66.205 166.429 66.1839 166.392 66.1464C166.354 66.1089 166.333 66.058 166.333 66.005C166.333 65.9519 166.354 65.9011 166.392 65.8635C166.429 65.826 166.48 65.805 166.534 65.805H168.151C168.204 65.805 168.255 65.826 168.293 65.8635C168.331 65.9011 168.352 65.9519 168.352 66.005C168.352 66.058 168.331 66.1089 168.293 66.1464C168.255 66.1839 168.204 66.205 168.151 66.205ZM164.103 66.205H162.485C162.432 66.205 162.381 66.1839 162.343 66.1464C162.306 66.1089 162.284 66.058 162.284 66.005C162.284 65.9519 162.306 65.9011 162.343 65.8635C162.381 65.826 162.432 65.805 162.485 65.805H164.103C164.156 65.805 164.207 65.826 164.245 65.8635C164.282 65.9011 164.304 65.9519 164.304 66.005C164.304 66.058 164.282 66.1089 164.245 66.1464C164.207 66.1839 164.156 66.205 164.103 66.205ZM160.059 66.205H158.442C158.389 66.205 158.338 66.1839 158.3 66.1464C158.262 66.1089 158.241 66.058 158.241 66.005C158.241 65.9519 158.262 65.9011 158.3 65.8635C158.338 65.826 158.389 65.805 158.442 65.805H160.059C160.113 65.805 160.164 65.826 160.201 65.8635C160.239 65.9011 160.26 65.9519 160.26 66.005C160.26 66.058 160.239 66.1089 160.201 66.1464C160.164 66.1839 160.113 66.205 160.059 66.205ZM156.041 66.205H154.424C154.371 66.205 154.319 66.1839 154.282 66.1464C154.244 66.1089 154.223 66.058 154.223 66.005C154.223 65.9519 154.244 65.9011 154.282 65.8635C154.319 65.826 154.371 65.805 154.424 65.805H156.041C156.094 65.805 156.146 65.826 156.183 65.8635C156.221 65.9011 156.242 65.9519 156.242 66.005C156.242 66.058 156.221 66.1089 156.183 66.1464C156.146 66.1839 156.094 66.205 156.041 66.205ZM151.998 66.205H150.376C150.322 66.205 150.271 66.1839 150.233 66.1464C150.196 66.1089 150.175 66.058 150.175 66.005C150.175 65.9519 150.196 65.9011 150.233 65.8635C150.271 65.826 150.322 65.805 150.376 65.805H151.998C152.051 65.805 152.102 65.826 152.14 65.8635C152.178 65.9011 152.199 65.9519 152.199 66.005C152.199 66.058 152.178 66.1089 152.14 66.1464C152.102 66.1839 152.051 66.205 151.998 66.205ZM147.95 66.205H146.332C146.279 66.205 146.228 66.1839 146.19 66.1464C146.152 66.1089 146.131 66.058 146.131 66.005C146.131 65.9519 146.152 65.9011 146.19 65.8635C146.228 65.826 146.279 65.805 146.332 65.805H147.95C148.003 65.805 148.054 65.826 148.092 65.8635C148.129 65.9011 148.15 65.9519 148.15 66.005C148.15 66.058 148.129 66.1089 148.092 66.1464C148.054 66.1839 148.003 66.205 147.95 66.205ZM143.906 66.205H142.289C142.236 66.205 142.185 66.1839 142.147 66.1464C142.109 66.1089 142.088 66.058 142.088 66.005C142.088 65.9519 142.109 65.9011 142.147 65.8635C142.185 65.826 142.236 65.805 142.289 65.805H143.906C143.96 65.805 144.011 65.826 144.048 65.8635C144.086 65.9011 144.107 65.9519 144.107 66.005C144.107 66.058 144.086 66.1089 144.048 66.1464C144.011 66.1839 143.96 66.205 143.906 66.205ZM139.863 66.205H138.246C138.192 66.205 138.141 66.1839 138.104 66.1464C138.066 66.1089 138.045 66.058 138.045 66.005C138.045 65.9519 138.066 65.9011 138.104 65.8635C138.141 65.826 138.192 65.805 138.246 65.805H139.863C139.916 65.805 139.967 65.826 140.005 65.8635C140.043 65.9011 140.064 65.9519 140.064 66.005C140.064 66.058 140.043 66.1089 140.005 66.1464C139.967 66.1839 139.916 66.205 139.863 66.205ZM135.815 66.205H134.197C134.144 66.205 134.093 66.1839 134.055 66.1464C134.018 66.1089 133.996 66.058 133.996 66.005C133.996 65.9519 134.018 65.9011 134.055 65.8635C134.093 65.826 134.144 65.805 134.197 65.805H135.815C135.868 65.805 135.919 65.826 135.957 65.8635C135.994 65.9011 136.016 65.9519 136.016 66.005C136.016 66.058 135.994 66.1089 135.957 66.1464C135.919 66.1839 135.868 66.205 135.815 66.205ZM131.796 66.205H130.089C130.035 66.205 129.984 66.1839 129.947 66.1464C129.909 66.1089 129.888 66.058 129.888 66.005C129.888 65.9519 129.909 65.9011 129.947 65.8635C129.984 65.826 130.035 65.805 130.089 65.805H131.706C131.759 65.805 131.81 65.826 131.848 65.8635C131.886 65.9011 131.907 65.9519 131.907 66.005C131.907 66.058 131.886 66.1089 131.848 66.1464C131.81 66.1839 131.759 66.205 131.706 66.205H131.796ZM127.753 66.205H126.071C126.017 66.205 125.966 66.1839 125.928 66.1464C125.891 66.1089 125.87 66.058 125.87 66.005C125.87 65.9519 125.891 65.9011 125.928 65.8635C125.966 65.826 126.017 65.805 126.071 65.805H127.688C127.741 65.805 127.792 65.826 127.83 65.8635C127.868 65.9011 127.889 65.9519 127.889 66.005C127.889 66.058 127.868 66.1089 127.83 66.1464C127.792 66.1839 127.741 66.205 127.688 66.205H127.753Z" fill="#DBE1E9"/>
<path opacity="0.1" d="M208.879 85.7047L121.726 67.6115C119.54 67.1577 117.398 68.5539 116.942 70.73L108.969 108.791C108.513 110.967 109.915 113.099 112.101 113.553L199.254 131.646C201.44 132.1 203.582 130.704 204.038 128.528L212.011 90.4666C212.467 88.2905 211.065 86.1585 208.879 85.7047Z" fill="black"/>
<path d="M204.796 90.4638L114.476 71.7132C113.165 71.441 111.88 72.2787 111.606 73.5844L102.972 114.798C102.699 116.103 103.54 117.383 104.852 117.655L195.171 136.405C196.483 136.678 197.768 135.84 198.041 134.534L206.675 93.321C206.949 92.0153 206.107 90.7361 204.796 90.4638Z" fill="white"/>
<path d="M155.426 85.0865L143.109 82.5294C141.947 82.2881 140.808 83.0305 140.566 84.1875C140.323 85.3445 141.069 86.478 142.231 86.7193L154.548 89.2763C155.711 89.5176 156.849 88.7753 157.092 87.6183C157.334 86.4613 156.588 85.3277 155.426 85.0865Z" fill="#FFE9CC"/>
<path d="M134.97 115.364L110.764 110.338C109.602 110.097 108.463 110.839 108.221 111.996C107.978 113.153 108.724 114.287 109.886 114.528L134.092 119.553C135.254 119.795 136.393 119.052 136.636 117.895C136.878 116.738 136.132 115.605 134.97 115.364Z" fill="#FFF0F0"/>
<path d="M167.658 124.335C167.886 123.247 167.185 122.181 166.092 121.954C164.999 121.727 163.928 122.425 163.7 123.513C163.472 124.601 164.173 125.667 165.266 125.894C166.359 126.121 167.43 125.423 167.658 124.335Z" fill="#CCE3FF"/>
<path d="M176.735 126.215C176.963 125.127 176.262 124.061 175.169 123.834C174.076 123.607 173.005 124.305 172.777 125.393C172.549 126.481 173.25 127.547 174.343 127.774C175.436 128.001 176.507 127.303 176.735 126.215Z" fill="#CCF1D5"/>
<path d="M185.811 128.1C186.039 127.012 185.338 125.946 184.245 125.719C183.152 125.492 182.081 126.19 181.853 127.278C181.625 128.366 182.326 129.432 183.419 129.659C184.512 129.886 185.583 129.188 185.811 128.1Z" fill="#CCEDFF"/>
<path d="M194.887 129.99C195.115 128.902 194.414 127.836 193.321 127.609C192.228 127.382 191.157 128.08 190.929 129.168C190.701 130.256 191.402 131.322 192.495 131.549C193.588 131.776 194.659 131.078 194.887 129.99Z" fill="#FFE9CC"/>
<path d="M136.78 81.843L115.415 77.4077L114.763 80.5207L136.127 84.956L136.78 81.843Z" fill="#F1F1F1"/>
<path d="M192.145 103.76L113.321 87.3955L112.669 90.5085L191.493 106.873L192.145 103.76Z" fill="#F1F1F1"/>
<path d="M161.843 105.837L112.049 95.7209L111.41 98.8373L161.204 108.953L161.843 105.837Z" fill="#F1F1F1"/>
<path d="M201.909 96.9178C202.309 94.9895 201.071 93.1056 199.145 92.7099C197.219 92.3142 195.333 93.5566 194.934 95.4849C194.534 97.4131 195.771 99.2971 197.698 99.6928C199.624 100.088 201.509 98.8461 201.909 96.9178Z" fill="#CCF1D5"/>
<path d="M109.603 105.742L109.573 105.889L195.732 123.776L195.763 123.629L109.603 105.742Z" fill="#F0F0F0"/>
<path d="M109.6 105.744L109.57 105.89L172.148 118.882L172.178 118.735L109.6 105.744Z" fill="#F0F0F0"/>
<g opacity="0.1">
<path d="M111.474 129.815C94.3972 129.815 83.4175 121.72 77.2295 114.93C73.2061 110.576 70.0131 105.528 67.8069 100.035C67.7569 99.8945 67.7651 99.7399 67.8296 99.6054C67.8941 99.4708 68.0097 99.3673 68.1509 99.3176C68.2921 99.2678 68.4474 99.276 68.5826 99.3402C68.7177 99.4044 68.8217 99.5195 68.8717 99.6601C71.0472 105.017 74.1687 109.943 78.0884 114.205C84.1157 120.815 94.804 128.705 111.469 128.705C128.913 128.705 140.516 120.705 147.176 113.95C151.48 109.649 155.002 104.638 157.588 99.1401C157.616 99.0721 157.658 99.0104 157.71 98.9584C157.763 98.9064 157.825 98.8652 157.893 98.8371C157.961 98.809 158.035 98.7946 158.109 98.7947C158.182 98.7948 158.256 98.8093 158.324 98.8376C158.392 98.8658 158.454 98.9071 158.506 98.9592C158.559 99.0113 158.6 99.0731 158.628 99.1412C158.657 99.2092 158.671 99.2821 158.671 99.3557C158.671 99.4293 158.656 99.5021 158.628 99.5701C155.992 105.187 152.4 110.308 148.01 114.705C141.199 121.59 129.33 129.815 111.474 129.815Z" fill="black"/>
</g>
<path d="M111.474 134.63C94.3419 134.63 83.3471 125.23 77.1692 117.35C73.1046 112.155 69.9279 106.329 67.7666 100.105C67.7426 100.029 67.734 99.9494 67.7413 99.8702C67.7485 99.7911 67.7715 99.7141 67.8089 99.6439C67.8463 99.5736 67.8973 99.5115 67.959 99.461C68.0208 99.4106 68.0919 99.3729 68.1684 99.35C68.323 99.3048 68.4892 99.3219 68.6311 99.3977C68.773 99.4735 68.8793 99.6019 68.9269 99.755C71.048 105.848 74.1637 111.551 78.1486 116.635C84.1759 124.295 94.8441 133.42 111.474 133.42C128.903 133.42 140.496 124.105 147.136 116.29C151.503 111.167 155.012 105.376 157.528 99.14C157.549 99.0587 157.587 98.9826 157.639 98.9166C157.691 98.8506 157.757 98.7962 157.831 98.7568C157.906 98.7174 157.988 98.694 158.072 98.6879C158.156 98.6818 158.241 98.6932 158.32 98.7215C158.4 98.7497 158.473 98.7941 158.534 98.8519C158.595 98.9097 158.644 98.9795 158.677 99.057C158.709 99.1345 158.725 99.2179 158.724 99.3019C158.722 99.386 158.703 99.4687 158.668 99.545C156.103 105.919 152.521 111.838 148.06 117.075C141.254 125.08 129.365 134.63 111.474 134.63Z" fill="#FF8080"/>
<path d="M158.1 102.69C159.887 102.69 161.335 101.248 161.335 99.47C161.335 97.6916 159.887 96.25 158.1 96.25C156.314 96.25 154.866 97.6916 154.866 99.47C154.866 101.248 156.314 102.69 158.1 102.69Z" fill="#FF8080"/>
</svg>
