<svg width="22" height="22" viewBox="0 0 22 22" fill="none" xmlns="http://www.w3.org/2000/svg">
<g clip-path="url(#clip0_457_2206)">
<path d="M0.808105 15.9706C0.808105 16.5882 1.05344 17.1805 1.49014 17.6172C1.92684 18.0539 2.51913 18.2992 3.13672 18.2992H19.437C20.0546 18.2992 20.6469 18.0539 21.0836 17.6172C21.5203 17.1805 21.7656 16.5882 21.7656 15.9706V13.0598H0.808105V15.9706Z" fill="#138808"/>
<path d="M21.7656 8.40271V5.49194C21.7656 4.87436 21.5203 4.28206 21.0836 3.84536C20.6469 3.40867 20.0546 3.16333 19.437 3.16333H3.13672C2.51913 3.16333 1.92684 3.40867 1.49014 3.84536C1.05344 4.28206 0.808105 4.87436 0.808105 5.49194L0.808105 8.40271H21.7656Z" fill="#FF9933"/>
<path d="M0.808105 8.20874H21.7656V13.2543H0.808105V8.20874Z" fill="#F7F7F7"/>
<path d="M11.2871 13.0598C12.5732 13.0598 13.6157 12.0173 13.6157 10.7312C13.6157 9.44514 12.5732 8.40259 11.2871 8.40259C10.0011 8.40259 8.9585 9.44514 8.9585 10.7312C8.9585 12.0173 10.0011 13.0598 11.2871 13.0598Z" fill="#000080"/>
<path d="M11.287 12.6959C12.3721 12.6959 13.2518 11.8162 13.2518 10.7311C13.2518 9.64601 12.3721 8.76636 11.287 8.76636C10.2019 8.76636 9.32227 9.64601 9.32227 10.7311C9.32227 11.8162 10.2019 12.6959 11.287 12.6959Z" fill="#F7F7F7"/>
<path d="M11.3449 10.0034L11.2867 10.3818L11.2285 10.0034L11.2867 8.86816L11.3449 10.0034ZM10.8047 8.93162L11.0422 10.0429L11.1965 10.3934L11.1546 10.0133L10.8047 8.93162ZM10.3553 9.11791L10.8722 10.1297L11.1121 10.4283L10.9735 10.0715L10.3553 9.11791ZM9.96931 9.41364L10.7308 10.2578L11.0399 10.4842L10.8134 10.1751L9.96931 9.41364ZM9.67357 9.79961L10.6271 10.4179L10.984 10.5564L10.6854 10.3166L9.67357 9.79961ZM9.48728 10.249L10.5689 10.5989L10.9491 10.6408L10.5986 10.4865L9.48728 10.249ZM9.42383 10.7311L10.559 10.7893L10.9374 10.7311L10.559 10.6728L9.42383 10.7311ZM9.48728 11.2131L10.5986 10.9756L10.9491 10.8213L10.5689 10.8632L9.48728 11.2131ZM9.67357 11.6625L10.6854 11.1455L10.984 10.9057L10.6271 11.0443L9.67357 11.6625ZM9.96931 12.0485L10.8134 11.287L11.0399 10.9779L10.7308 11.2043L9.96931 12.0485ZM10.3553 12.3442L10.9735 11.3906L11.1121 11.0338L10.8722 11.3324L10.3553 12.3442ZM10.8047 12.5305L11.1546 11.4488L11.1965 11.0687L11.0422 11.4192L10.8047 12.5305ZM11.2867 12.5939L11.3449 11.4587L11.2867 11.0803L11.2285 11.4587L11.2867 12.5939ZM11.7687 12.5305L11.5312 11.4192L11.377 11.0687L11.4189 11.4488L11.7687 12.5305ZM12.2182 12.3442L11.7012 11.3324L11.4614 11.0338L11.5999 11.3906L12.2182 12.3442ZM12.6041 12.0485L11.8427 11.2043L11.5335 10.9779L11.76 11.287L12.6041 12.0485ZM12.8999 11.6625L11.9463 11.0443L11.5894 10.9057L11.8881 11.1455L12.8999 11.6625ZM13.0862 11.2131L12.0045 10.8632L11.6244 10.8213L11.9748 10.9756L13.0862 11.2131ZM13.1496 10.7311L12.0144 10.6728L11.636 10.7311L12.0144 10.7893L13.1496 10.7311ZM13.0862 10.249L11.9748 10.4865L11.6244 10.6408L12.0045 10.5989L13.0862 10.249ZM12.8999 9.79961L11.8881 10.3166L11.5894 10.5564L11.9463 10.4179L12.8999 9.79961ZM12.6041 9.41364L11.76 10.1751L11.5335 10.4842L11.8427 10.2578L12.6041 9.41364ZM12.2182 9.11791L11.5999 10.0715L11.4614 10.4283L11.7012 10.1297L12.2182 9.11791ZM11.7687 8.93162L11.4189 10.0133L11.377 10.3934L11.5312 10.0429L11.7687 8.93162Z" fill="#6666B3"/>
<path d="M11.0305 8.90278C11.0948 8.90278 11.1469 8.85066 11.1469 8.78635C11.1469 8.72205 11.0948 8.66992 11.0305 8.66992C10.9662 8.66992 10.9141 8.72205 10.9141 8.78635C10.9141 8.85066 10.9662 8.90278 11.0305 8.90278Z" fill="#000080"/>
<path d="M10.5359 9.03535C10.6002 9.03535 10.6523 8.98322 10.6523 8.91892C10.6523 8.85462 10.6002 8.80249 10.5359 8.80249C10.4716 8.80249 10.4194 8.85462 10.4194 8.91892C10.4194 8.98322 10.4716 9.03535 10.5359 9.03535Z" fill="#000080"/>
<path d="M10.0925 9.29097C10.1568 9.29097 10.2089 9.23884 10.2089 9.17454C10.2089 9.11023 10.1568 9.05811 10.0925 9.05811C10.0282 9.05811 9.97607 9.11023 9.97607 9.17454C9.97607 9.23884 10.0282 9.29097 10.0925 9.29097Z" fill="#000080"/>
<path d="M9.7302 9.65303C9.7945 9.65303 9.84663 9.6009 9.84663 9.5366C9.84663 9.47229 9.7945 9.42017 9.7302 9.42017C9.6659 9.42017 9.61377 9.47229 9.61377 9.5366C9.61377 9.6009 9.6659 9.65303 9.7302 9.65303Z" fill="#000080"/>
<path d="M9.47483 10.0966C9.53913 10.0966 9.59126 10.0445 9.59126 9.9802C9.59126 9.9159 9.53913 9.86377 9.47483 9.86377C9.41053 9.86377 9.3584 9.9159 9.3584 9.9802C9.3584 10.0445 9.41053 10.0966 9.47483 10.0966Z" fill="#000080"/>
<path d="M9.34202 10.5915C9.40632 10.5915 9.45845 10.5394 9.45845 10.4751C9.45845 10.4108 9.40632 10.3586 9.34202 10.3586C9.27771 10.3586 9.22559 10.4108 9.22559 10.4751C9.22559 10.5394 9.27771 10.5915 9.34202 10.5915Z" fill="#000080"/>
<path d="M9.34202 11.1037C9.40632 11.1037 9.45845 11.0516 9.45845 10.9873C9.45845 10.923 9.40632 10.8708 9.34202 10.8708C9.27771 10.8708 9.22559 10.923 9.22559 10.9873C9.22559 11.0516 9.27771 11.1037 9.34202 11.1037Z" fill="#000080"/>
<path d="M9.47483 11.5986C9.53913 11.5986 9.59126 11.5465 9.59126 11.4822C9.59126 11.4179 9.53913 11.3657 9.47483 11.3657C9.41053 11.3657 9.3584 11.4179 9.3584 11.4822C9.3584 11.5465 9.41053 11.5986 9.47483 11.5986Z" fill="#000080"/>
<path d="M9.7302 12.0422C9.7945 12.0422 9.84663 11.9901 9.84663 11.9258C9.84663 11.8615 9.7945 11.8093 9.7302 11.8093C9.6659 11.8093 9.61377 11.8615 9.61377 11.9258C9.61377 11.9901 9.6659 12.0422 9.7302 12.0422Z" fill="#000080"/>
<path d="M10.0925 12.4042C10.1568 12.4042 10.2089 12.3521 10.2089 12.2878C10.2089 12.2235 10.1568 12.1714 10.0925 12.1714C10.0282 12.1714 9.97607 12.2235 9.97607 12.2878C9.97607 12.3521 10.0282 12.4042 10.0925 12.4042Z" fill="#000080"/>
<path d="M10.5359 12.6599C10.6002 12.6599 10.6523 12.6077 10.6523 12.5434C10.6523 12.4791 10.6002 12.427 10.5359 12.427C10.4716 12.427 10.4194 12.4791 10.4194 12.5434C10.4194 12.6077 10.4716 12.6599 10.5359 12.6599Z" fill="#000080"/>
<path d="M11.0305 12.7924C11.0948 12.7924 11.1469 12.7403 11.1469 12.676C11.1469 12.6117 11.0948 12.5596 11.0305 12.5596C10.9662 12.5596 10.9141 12.6117 10.9141 12.676C10.9141 12.7403 10.9662 12.7924 11.0305 12.7924Z" fill="#000080"/>
<path d="M11.5432 12.7924C11.6075 12.7924 11.6596 12.7403 11.6596 12.676C11.6596 12.6117 11.6075 12.5596 11.5432 12.5596C11.4789 12.5596 11.4268 12.6117 11.4268 12.676C11.4268 12.7403 11.4789 12.7924 11.5432 12.7924Z" fill="#000080"/>
<path d="M12.0378 12.6599C12.1021 12.6599 12.1542 12.6077 12.1542 12.5434C12.1542 12.4791 12.1021 12.427 12.0378 12.427C11.9735 12.427 11.9214 12.4791 11.9214 12.5434C11.9214 12.6077 11.9735 12.6599 12.0378 12.6599Z" fill="#000080"/>
<path d="M12.4817 12.4042C12.546 12.4042 12.5981 12.3521 12.5981 12.2878C12.5981 12.2235 12.546 12.1714 12.4817 12.1714C12.4174 12.1714 12.3652 12.2235 12.3652 12.2878C12.3652 12.3521 12.4174 12.4042 12.4817 12.4042Z" fill="#000080"/>
<path d="M12.843 12.0422C12.9073 12.0422 12.9594 11.9901 12.9594 11.9258C12.9594 11.8615 12.9073 11.8093 12.843 11.8093C12.7787 11.8093 12.7266 11.8615 12.7266 11.9258C12.7266 11.9901 12.7787 12.0422 12.843 12.0422Z" fill="#000080"/>
<path d="M13.0989 11.5986C13.1632 11.5986 13.2153 11.5465 13.2153 11.4822C13.2153 11.4179 13.1632 11.3657 13.0989 11.3657C13.0346 11.3657 12.9824 11.4179 12.9824 11.4822C12.9824 11.5465 13.0346 11.5986 13.0989 11.5986Z" fill="#000080"/>
<path d="M13.2317 11.1037C13.296 11.1037 13.3481 11.0516 13.3481 10.9873C13.3481 10.923 13.296 10.8708 13.2317 10.8708C13.1674 10.8708 13.1152 10.923 13.1152 10.9873C13.1152 11.0516 13.1674 11.1037 13.2317 11.1037Z" fill="#000080"/>
<path d="M13.2317 10.5915C13.296 10.5915 13.3481 10.5394 13.3481 10.4751C13.3481 10.4108 13.296 10.3586 13.2317 10.3586C13.1674 10.3586 13.1152 10.4108 13.1152 10.4751C13.1152 10.5394 13.1674 10.5915 13.2317 10.5915Z" fill="#000080"/>
<path d="M13.0989 10.0966C13.1632 10.0966 13.2153 10.0445 13.2153 9.9802C13.2153 9.9159 13.1632 9.86377 13.0989 9.86377C13.0346 9.86377 12.9824 9.9159 12.9824 9.9802C12.9824 10.0445 13.0346 10.0966 13.0989 10.0966Z" fill="#000080"/>
<path d="M12.843 9.65303C12.9073 9.65303 12.9594 9.6009 12.9594 9.5366C12.9594 9.47229 12.9073 9.42017 12.843 9.42017C12.7787 9.42017 12.7266 9.47229 12.7266 9.5366C12.7266 9.6009 12.7787 9.65303 12.843 9.65303Z" fill="#000080"/>
<path d="M12.4817 9.29097C12.546 9.29097 12.5981 9.23884 12.5981 9.17454C12.5981 9.11023 12.546 9.05811 12.4817 9.05811C12.4174 9.05811 12.3652 9.11023 12.3652 9.17454C12.3652 9.23884 12.4174 9.29097 12.4817 9.29097Z" fill="#000080"/>
<path d="M12.0378 9.03535C12.1021 9.03535 12.1542 8.98322 12.1542 8.91892C12.1542 8.85462 12.1021 8.80249 12.0378 8.80249C11.9735 8.80249 11.9214 8.85462 11.9214 8.91892C11.9214 8.98322 11.9735 9.03535 12.0378 9.03535Z" fill="#000080"/>
<path d="M11.5432 8.90278C11.6075 8.90278 11.6596 8.85066 11.6596 8.78635C11.6596 8.72205 11.6075 8.66992 11.5432 8.66992C11.4789 8.66992 11.4268 8.72205 11.4268 8.78635C11.4268 8.85066 11.4789 8.90278 11.5432 8.90278Z" fill="#000080"/>
<path d="M11.2866 11.2552C11.576 11.2552 11.8106 11.0206 11.8106 10.7312C11.8106 10.4419 11.576 10.2073 11.2866 10.2073C10.9973 10.2073 10.7627 10.4419 10.7627 10.7312C10.7627 11.0206 10.9973 11.2552 11.2866 11.2552Z" fill="#000080"/>
</g>
<defs>
<clipPath id="clip0_457_2206">
<rect width="20.9575" height="20.9575" fill="white" transform="translate(0.808105 0.252441)"/>
</clipPath>
</defs>
</svg>
