<svg width="9" height="9" viewBox="0 0 9 9" fill="none" xmlns="http://www.w3.org/2000/svg">
<path d="M5.43655 2.62162C5.77148 2.68697 6.07929 2.85077 6.32059 3.09207C6.56188 3.33336 6.72569 3.64117 6.79103 3.9761M5.43655 1.25C6.1324 1.3273 6.78129 1.63891 7.27667 2.13367C7.77205 2.62843 8.08447 3.27692 8.16265 3.97267M7.81975 6.70906V7.73778C7.82014 7.83327 7.80057 7.9278 7.76231 8.01531C7.72406 8.10281 7.66794 8.18135 7.59757 8.24592C7.5272 8.31048 7.44412 8.35963 7.35365 8.39022C7.26319 8.42082 7.16733 8.43218 7.07221 8.42359C6.01704 8.30893 5.00346 7.94837 4.11294 7.37087C3.28442 6.84439 2.58198 6.14195 2.0555 5.31343C1.47599 4.41886 1.11534 3.40036 1.00278 2.34044C0.994214 2.24562 1.00548 2.15005 1.03587 2.05981C1.06626 1.96958 1.11511 1.88667 1.1793 1.81635C1.24349 1.74603 1.32162 1.68985 1.40871 1.65138C1.49581 1.61291 1.58995 1.593 1.68517 1.59291H2.71388C2.8803 1.59127 3.04163 1.6502 3.16781 1.75871C3.29399 1.86723 3.3764 2.01792 3.39969 2.1827C3.44311 2.51192 3.52364 2.83516 3.63973 3.14627C3.68586 3.269 3.69585 3.40239 3.6685 3.53062C3.64115 3.65886 3.57762 3.77657 3.48542 3.8698L3.04993 4.30529C3.53808 5.16377 4.24888 5.87458 5.10736 6.36272L5.54285 5.92723C5.63609 5.83504 5.75379 5.7715 5.88203 5.74415C6.01026 5.71681 6.14365 5.72679 6.26639 5.77293C6.57749 5.88902 6.90074 5.96954 7.22995 6.01296C7.39652 6.03646 7.54865 6.12036 7.65739 6.24871C7.76614 6.37705 7.82392 6.54089 7.81975 6.70906Z" stroke="#3F3F3F" stroke-width="0.685811" stroke-linecap="round" stroke-linejoin="round"/>
</svg>
